<svg width="36" height="409" viewBox="0 0 36 409" fill="none" xmlns="http://www.w3.org/2000/svg">
<path d="M18 409L35.3205 379L0.679508 379L18 409ZM15 1.31134e-07L15 382L21 382L21 -1.31134e-07L15 1.31134e-07Z" fill="#F5F5F5"/>
<path d="M18.0125 224C14.6987 224 12.0125 221.538 12.0125 218.5C12.0125 215.462 14.6987 213 18.0125 213C21.3262 213 24.0125 215.462 24.0125 218.5C24.0125 221.538 21.3262 224 18.0125 224Z" fill="#F5F5F5"/>
<path d="M18 330C14.6863 330 12 327.538 12 324.5C12 321.462 14.6863 319 18 319C21.3137 319 24 321.462 24 324.5C24 327.538 21.3137 330 18 330Z" fill="#F5F5F5"/>
<path d="M18.0125 121C14.6988 121 12.0125 118.538 12.0125 115.5C12.0125 112.462 14.6988 110 18.0125 110C21.3262 110 24.0125 112.462 24.0125 115.5C24.0125 118.538 21.3262 121 18.0125 121Z" fill="#F5F5F5"/>
<path d="M18.0125 25C14.6988 25 12.0125 22.5376 12.0125 19.5C12.0125 16.4624 14.6988 14 18.0125 14C21.3262 14 24.0125 16.4624 24.0125 19.5C24.0125 22.5376 21.3262 25 18.0125 25Z" fill="#F5F5F5"/>
</svg>
