<svg width="40" height="348" viewBox="0 0 40 348" fill="none" xmlns="http://www.w3.org/2000/svg">
<path d="M18.1953 322.376C18.1953 322.2 18.168 322.044 18.1133 321.907C18.0625 321.771 17.9707 321.646 17.8379 321.532C17.7051 321.419 17.5176 321.31 17.2754 321.204C17.0371 321.095 16.7324 320.984 16.3613 320.87C15.9551 320.745 15.5801 320.607 15.2363 320.454C14.8965 320.298 14.5996 320.118 14.3457 319.915C14.0918 319.708 13.8945 319.472 13.7539 319.206C13.6133 318.937 13.543 318.626 13.543 318.275C13.543 317.927 13.6152 317.611 13.7598 317.325C13.9082 317.04 14.1172 316.794 14.3867 316.587C14.6602 316.376 14.9824 316.214 15.3535 316.101C15.7246 315.984 16.1348 315.925 16.584 315.925C17.2168 315.925 17.7617 316.042 18.2188 316.277C18.6797 316.511 19.0332 316.825 19.2793 317.22C19.5293 317.615 19.6543 318.05 19.6543 318.527H18.1953C18.1953 318.245 18.1348 317.997 18.0137 317.782C17.8965 317.564 17.7168 317.392 17.4746 317.267C17.2363 317.142 16.9336 317.079 16.5664 317.079C16.2188 317.079 15.9297 317.132 15.6992 317.238C15.4688 317.343 15.2969 317.486 15.1836 317.665C15.0703 317.845 15.0137 318.048 15.0137 318.275C15.0137 318.435 15.0508 318.581 15.125 318.714C15.1992 318.843 15.3125 318.964 15.4648 319.077C15.6172 319.187 15.8086 319.29 16.0391 319.388C16.2695 319.486 16.541 319.579 16.8535 319.669C17.3262 319.81 17.7383 319.966 18.0898 320.138C18.4414 320.306 18.7344 320.497 18.9688 320.712C19.2031 320.927 19.3789 321.171 19.4961 321.445C19.6133 321.714 19.6719 322.021 19.6719 322.365C19.6719 322.724 19.5996 323.048 19.4551 323.337C19.3105 323.622 19.1035 323.866 18.834 324.07C18.5684 324.269 18.248 324.423 17.873 324.532C17.502 324.638 17.0879 324.691 16.6309 324.691C16.2207 324.691 15.8164 324.636 15.418 324.527C15.0234 324.417 14.6641 324.251 14.3398 324.029C14.0156 323.802 13.7578 323.521 13.5664 323.185C13.375 322.845 13.2793 322.448 13.2793 321.995H14.75C14.75 322.273 14.7969 322.509 14.8906 322.704C14.9883 322.9 15.123 323.06 15.2949 323.185C15.4668 323.306 15.666 323.396 15.8926 323.454C16.123 323.513 16.3691 323.542 16.6309 323.542C16.9746 323.542 17.2617 323.493 17.4922 323.396C17.7266 323.298 17.9023 323.161 18.0195 322.986C18.1367 322.81 18.1953 322.607 18.1953 322.376ZM22.3438 318.234V324.573H20.9258V318.234H22.3438ZM20.832 316.57C20.832 316.355 20.9023 316.177 21.043 316.036C21.1875 315.892 21.3867 315.82 21.6406 315.82C21.8906 315.82 22.0879 315.892 22.2324 316.036C22.377 316.177 22.4492 316.355 22.4492 316.57C22.4492 316.781 22.377 316.956 22.2324 317.097C22.0879 317.238 21.8906 317.308 21.6406 317.308C21.3867 317.308 21.1875 317.238 21.043 317.097C20.9023 316.956 20.832 316.781 20.832 316.57ZM26.7969 318.234V319.265H23.2227V318.234H26.7969ZM24.2539 316.681H25.666V322.822C25.666 323.017 25.6934 323.167 25.748 323.273C25.8066 323.374 25.8867 323.443 25.9883 323.478C26.0898 323.513 26.209 323.531 26.3457 323.531C26.4434 323.531 26.5371 323.525 26.627 323.513C26.7168 323.501 26.7891 323.49 26.8438 323.478L26.8496 324.556C26.7324 324.591 26.5957 324.622 26.4395 324.65C26.2871 324.677 26.1113 324.691 25.9121 324.691C25.5879 324.691 25.3008 324.634 25.0508 324.521C24.8008 324.404 24.6055 324.214 24.4648 323.952C24.3242 323.691 24.2539 323.343 24.2539 322.909V316.681Z" fill="white"/>
<path d="M8.9668 219.019H7.14453L7.15625 217.853H8.9668C9.49414 217.853 9.93555 217.738 10.291 217.507C10.6504 217.277 10.9199 216.947 11.0996 216.517C11.2832 216.087 11.375 215.576 11.375 214.982V214.519C11.375 214.058 11.3223 213.65 11.2168 213.294C11.1152 212.939 10.9629 212.64 10.7598 212.398C10.5605 212.156 10.3145 211.972 10.0215 211.847C9.73242 211.722 9.39844 211.66 9.01953 211.66H7.10938V210.488H9.01953C9.58594 210.488 10.1035 210.583 10.5723 210.775C11.041 210.962 11.4453 211.234 11.7852 211.589C12.1289 211.945 12.3926 212.37 12.5762 212.867C12.7598 213.363 12.8516 213.917 12.8516 214.531V214.982C12.8516 215.595 12.7598 216.15 12.5762 216.646C12.3926 217.142 12.1289 217.568 11.7852 217.923C11.4414 218.275 11.0312 218.546 10.5547 218.738C10.082 218.925 9.55273 219.019 8.9668 219.019ZM7.95898 210.488V219.019H6.48828V210.488H7.95898ZM13.918 215.919V215.785C13.918 215.328 13.9844 214.904 14.1172 214.513C14.25 214.119 14.4414 213.777 14.6914 213.488C14.9453 213.195 15.2539 212.968 15.6172 212.808C15.9844 212.644 16.3984 212.562 16.8594 212.562C17.3242 212.562 17.7383 212.644 18.1016 212.808C18.4688 212.968 18.7793 213.195 19.0332 213.488C19.2871 213.777 19.4805 214.119 19.6133 214.513C19.7461 214.904 19.8125 215.328 19.8125 215.785V215.919C19.8125 216.376 19.7461 216.8 19.6133 217.191C19.4805 217.581 19.2871 217.923 19.0332 218.216C18.7793 218.505 18.4707 218.732 18.1074 218.896C17.7441 219.056 17.332 219.136 16.8711 219.136C16.4062 219.136 15.9902 219.056 15.623 218.896C15.2598 218.732 14.9512 218.505 14.6973 218.216C14.4434 217.923 14.25 217.581 14.1172 217.191C13.9844 216.8 13.918 216.376 13.918 215.919ZM15.3301 215.785V215.919C15.3301 216.204 15.3594 216.474 15.418 216.728C15.4766 216.982 15.5684 217.204 15.6934 217.396C15.8184 217.587 15.9785 217.738 16.1738 217.847C16.3691 217.956 16.6016 218.011 16.8711 218.011C17.1328 218.011 17.3594 217.956 17.5508 217.847C17.7461 217.738 17.9062 217.587 18.0312 217.396C18.1562 217.204 18.248 216.982 18.3066 216.728C18.3691 216.474 18.4004 216.204 18.4004 215.919V215.785C18.4004 215.503 18.3691 215.238 18.3066 214.988C18.248 214.734 18.1543 214.509 18.0254 214.314C17.9004 214.119 17.7402 213.966 17.5449 213.857C17.3535 213.744 17.125 213.687 16.8594 213.687C16.5938 213.687 16.3633 213.744 16.168 213.857C15.9766 213.966 15.8184 214.119 15.6934 214.314C15.5684 214.509 15.4766 214.734 15.418 214.988C15.3594 215.238 15.3301 215.503 15.3301 215.785ZM22.5078 210.019V219.019H21.0898V210.019H22.5078ZM23.7852 215.919V215.785C23.7852 215.328 23.8516 214.904 23.9844 214.513C24.1172 214.119 24.3086 213.777 24.5586 213.488C24.8125 213.195 25.1211 212.968 25.4844 212.808C25.8516 212.644 26.2656 212.562 26.7266 212.562C27.1914 212.562 27.6055 212.644 27.9688 212.808C28.3359 212.968 28.6465 213.195 28.9004 213.488C29.1543 213.777 29.3477 214.119 29.4805 214.513C29.6133 214.904 29.6797 215.328 29.6797 215.785V215.919C29.6797 216.376 29.6133 216.8 29.4805 217.191C29.3477 217.581 29.1543 217.923 28.9004 218.216C28.6465 218.505 28.3379 218.732 27.9746 218.896C27.6113 219.056 27.1992 219.136 26.7383 219.136C26.2734 219.136 25.8574 219.056 25.4902 218.896C25.127 218.732 24.8184 218.505 24.5645 218.216C24.3105 217.923 24.1172 217.581 23.9844 217.191C23.8516 216.8 23.7852 216.376 23.7852 215.919ZM25.1973 215.785V215.919C25.1973 216.204 25.2266 216.474 25.2852 216.728C25.3438 216.982 25.4355 217.204 25.5605 217.396C25.6855 217.587 25.8457 217.738 26.041 217.847C26.2363 217.956 26.4688 218.011 26.7383 218.011C27 218.011 27.2266 217.956 27.418 217.847C27.6133 217.738 27.7734 217.587 27.8984 217.396C28.0234 217.204 28.1152 216.982 28.1738 216.728C28.2363 216.474 28.2676 216.204 28.2676 215.919V215.785C28.2676 215.503 28.2363 215.238 28.1738 214.988C28.1152 214.734 28.0215 214.509 27.8926 214.314C27.7676 214.119 27.6074 213.966 27.4121 213.857C27.2207 213.744 26.9922 213.687 26.7266 213.687C26.4609 213.687 26.2305 213.744 26.0352 213.857C25.8438 213.966 25.6855 214.119 25.5605 214.314C25.4355 214.509 25.3438 214.734 25.2852 214.988C25.2266 215.238 25.1973 215.503 25.1973 215.785ZM32.2812 213.886V219.019H30.8691V212.679H32.2168L32.2812 213.886ZM34.2207 212.638L34.209 213.951C34.123 213.935 34.0293 213.923 33.9277 213.915C33.8301 213.908 33.7324 213.904 33.6348 213.904C33.3926 213.904 33.1797 213.939 32.9961 214.009C32.8125 214.076 32.6582 214.173 32.5332 214.302C32.4121 214.427 32.3184 214.579 32.252 214.759C32.1855 214.939 32.1465 215.14 32.1348 215.363L31.8125 215.386C31.8125 214.988 31.8516 214.619 31.9297 214.279C32.0078 213.939 32.125 213.64 32.2812 213.382C32.4414 213.124 32.6406 212.923 32.8789 212.779C33.1211 212.634 33.4004 212.562 33.7168 212.562C33.8027 212.562 33.8945 212.57 33.9922 212.585C34.0938 212.601 34.1699 212.619 34.2207 212.638Z" fill="white"/>
<path d="M5.70898 104.933V113.464H4.23828V104.933H5.70898ZM8.81445 108.343V115.902H7.40234V107.125H8.70312L8.81445 108.343ZM12.9453 110.236V110.359C12.9453 110.82 12.8906 111.248 12.7812 111.642C12.6758 112.033 12.5176 112.375 12.3066 112.668C12.0996 112.957 11.8438 113.181 11.5391 113.341C11.2344 113.502 10.8828 113.582 10.4844 113.582C10.0898 113.582 9.74414 113.509 9.44727 113.365C9.1543 113.216 8.90625 113.007 8.70312 112.738C8.5 112.468 8.33594 112.152 8.21094 111.789C8.08984 111.422 8.00391 111.019 7.95312 110.582V110.107C8.00391 109.642 8.08984 109.22 8.21094 108.841C8.33594 108.463 8.5 108.136 8.70312 107.863C8.90625 107.589 9.1543 107.379 9.44727 107.23C9.74023 107.082 10.082 107.007 10.4727 107.007C10.8711 107.007 11.2246 107.086 11.5332 107.242C11.8418 107.394 12.1016 107.613 12.3125 107.898C12.5234 108.179 12.6816 108.519 12.7871 108.918C12.8926 109.312 12.9453 109.752 12.9453 110.236ZM11.5332 110.359V110.236C11.5332 109.943 11.5059 109.672 11.4512 109.422C11.3965 109.168 11.3105 108.945 11.1934 108.754C11.0762 108.562 10.9258 108.414 10.7422 108.308C10.5625 108.199 10.3457 108.144 10.0918 108.144C9.8418 108.144 9.62695 108.187 9.44727 108.273C9.26758 108.355 9.11719 108.47 8.99609 108.619C8.875 108.767 8.78125 108.941 8.71484 109.14C8.64844 109.336 8.60156 109.548 8.57422 109.779V110.916C8.62109 111.197 8.70117 111.455 8.81445 111.689C8.92773 111.923 9.08789 112.111 9.29492 112.252C9.50586 112.388 9.77539 112.457 10.1035 112.457C10.3574 112.457 10.5742 112.402 10.7539 112.293C10.9336 112.183 11.0801 112.033 11.1934 111.841C11.3105 111.646 11.3965 111.422 11.4512 111.168C11.5059 110.914 11.5332 110.644 11.5332 110.359ZM17.7031 111.748C17.7031 111.607 17.668 111.48 17.5977 111.367C17.5273 111.25 17.3926 111.144 17.1934 111.05C16.998 110.957 16.709 110.871 16.3262 110.793C15.9902 110.718 15.6816 110.63 15.4004 110.529C15.123 110.423 14.8848 110.297 14.6855 110.148C14.4863 110 14.332 109.824 14.2227 109.621C14.1133 109.418 14.0586 109.183 14.0586 108.918C14.0586 108.66 14.1152 108.416 14.2285 108.185C14.3418 107.955 14.5039 107.752 14.7148 107.576C14.9258 107.4 15.1816 107.261 15.4824 107.16C15.7871 107.058 16.127 107.007 16.502 107.007C17.0332 107.007 17.4883 107.097 17.8672 107.277C18.25 107.453 18.543 107.693 18.7461 107.998C18.9492 108.298 19.0508 108.638 19.0508 109.017H17.6387C17.6387 108.849 17.5957 108.693 17.5098 108.548C17.4277 108.4 17.3027 108.281 17.1348 108.191C16.9668 108.097 16.7559 108.05 16.502 108.05C16.2598 108.05 16.0586 108.089 15.8984 108.168C15.7422 108.242 15.625 108.339 15.5469 108.461C15.4727 108.582 15.4355 108.714 15.4355 108.859C15.4355 108.964 15.4551 109.06 15.4941 109.146C15.5371 109.228 15.6074 109.304 15.7051 109.375C15.8027 109.441 15.9355 109.504 16.1035 109.562C16.2754 109.621 16.4902 109.677 16.748 109.732C17.2324 109.834 17.6484 109.964 17.9961 110.125C18.3477 110.281 18.6172 110.484 18.8047 110.734C18.9922 110.98 19.0859 111.293 19.0859 111.672C19.0859 111.953 19.0254 112.211 18.9043 112.445C18.7871 112.675 18.6152 112.877 18.3887 113.048C18.1621 113.216 17.8906 113.347 17.5742 113.441C17.2617 113.535 16.9102 113.582 16.5195 113.582C15.9453 113.582 15.459 113.48 15.0605 113.277C14.6621 113.07 14.3594 112.806 14.1523 112.486C13.9492 112.162 13.8477 111.826 13.8477 111.478H15.2129C15.2285 111.74 15.3008 111.949 15.4297 112.105C15.5625 112.257 15.7266 112.369 15.9219 112.439C16.1211 112.505 16.3262 112.539 16.5371 112.539C16.791 112.539 17.0039 112.505 17.1758 112.439C17.3477 112.369 17.4785 112.275 17.5684 112.158C17.6582 112.037 17.7031 111.9 17.7031 111.748ZM24.1367 111.97V107.125H25.5547V113.464H24.2188L24.1367 111.97ZM24.3359 110.652L24.8105 110.64C24.8105 111.066 24.7637 111.459 24.6699 111.818C24.5762 112.173 24.4316 112.484 24.2363 112.75C24.041 113.011 23.791 113.216 23.4863 113.365C23.1816 113.509 22.8164 113.582 22.3906 113.582C22.082 113.582 21.7988 113.537 21.541 113.447C21.2832 113.357 21.0605 113.218 20.873 113.031C20.6895 112.843 20.5469 112.599 20.4453 112.298C20.3438 111.998 20.293 111.638 20.293 111.22V107.125H21.7051V111.232C21.7051 111.463 21.7324 111.656 21.7871 111.812C21.8418 111.964 21.916 112.088 22.0098 112.181C22.1035 112.275 22.2129 112.341 22.3379 112.38C22.4629 112.42 22.5957 112.439 22.7363 112.439C23.1387 112.439 23.4551 112.361 23.6855 112.205C23.9199 112.045 24.0859 111.83 24.1836 111.56C24.2852 111.291 24.3359 110.988 24.3359 110.652ZM28.4141 108.414V113.464H27.002V107.125H28.332L28.4141 108.414ZM28.1855 110.06L27.7051 110.054C27.7051 109.617 27.7598 109.213 27.8691 108.841C27.9785 108.47 28.1387 108.148 28.3496 107.875C28.5605 107.597 28.8223 107.384 29.1348 107.236C29.4512 107.084 29.8164 107.007 30.2305 107.007C30.5195 107.007 30.7832 107.05 31.0215 107.136C31.2637 107.218 31.4727 107.349 31.6484 107.529C31.8281 107.709 31.9648 107.939 32.0586 108.22C32.1562 108.502 32.2051 108.841 32.2051 109.24V113.464H30.793V109.363C30.793 109.054 30.7461 108.812 30.6523 108.636C30.5625 108.461 30.4316 108.336 30.2598 108.261C30.0918 108.183 29.8906 108.144 29.6562 108.144C29.3906 108.144 29.1641 108.195 28.9766 108.297C28.793 108.398 28.6426 108.537 28.5254 108.713C28.4082 108.888 28.3223 109.091 28.2676 109.322C28.2129 109.552 28.1855 109.798 28.1855 110.06ZM32.1172 109.685L31.4551 109.832C31.4551 109.449 31.5078 109.088 31.6133 108.748C31.7227 108.404 31.8809 108.103 32.0879 107.845C32.2988 107.584 32.5586 107.379 32.8672 107.23C33.1758 107.082 33.5293 107.007 33.9277 107.007C34.252 107.007 34.541 107.052 34.7949 107.142C35.0527 107.228 35.2715 107.365 35.4512 107.552C35.6309 107.74 35.7676 107.984 35.8613 108.285C35.9551 108.582 36.002 108.941 36.002 109.363V113.464H34.584V109.357C34.584 109.037 34.5371 108.789 34.4434 108.613C34.3535 108.437 34.2246 108.316 34.0566 108.25C33.8887 108.179 33.6875 108.144 33.4531 108.144C33.2344 108.144 33.041 108.185 32.873 108.267C32.709 108.345 32.5703 108.457 32.457 108.601C32.3438 108.742 32.2578 108.904 32.1992 109.088C32.1445 109.271 32.1172 109.47 32.1172 109.685Z" fill="#F5F5F5"/>
<path d="M9.06055 18.834V20H4.77734V18.834H9.06055ZM5.1875 11.4688V20H3.7168V11.4688H5.1875ZM9.78711 16.9004V16.7656C9.78711 16.3086 9.85352 15.8848 9.98633 15.4941C10.1191 15.0996 10.3105 14.7578 10.5605 14.4688C10.8145 14.1758 11.123 13.9492 11.4863 13.7891C11.8535 13.625 12.2676 13.543 12.7285 13.543C13.1934 13.543 13.6074 13.625 13.9707 13.7891C14.3379 13.9492 14.6484 14.1758 14.9023 14.4688C15.1562 14.7578 15.3496 15.0996 15.4824 15.4941C15.6152 15.8848 15.6816 16.3086 15.6816 16.7656V16.9004C15.6816 17.3574 15.6152 17.7812 15.4824 18.1719C15.3496 18.5625 15.1562 18.9043 14.9023 19.1973C14.6484 19.4863 14.3398 19.7129 13.9766 19.877C13.6133 20.0371 13.2012 20.1172 12.7402 20.1172C12.2754 20.1172 11.8594 20.0371 11.4922 19.877C11.1289 19.7129 10.8203 19.4863 10.5664 19.1973C10.3125 18.9043 10.1191 18.5625 9.98633 18.1719C9.85352 17.7812 9.78711 17.3574 9.78711 16.9004ZM11.1992 16.7656V16.9004C11.1992 17.1855 11.2285 17.4551 11.2871 17.709C11.3457 17.9629 11.4375 18.1855 11.5625 18.377C11.6875 18.5684 11.8477 18.7188 12.043 18.8281C12.2383 18.9375 12.4707 18.9922 12.7402 18.9922C13.002 18.9922 13.2285 18.9375 13.4199 18.8281C13.6152 18.7188 13.7754 18.5684 13.9004 18.377C14.0254 18.1855 14.1172 17.9629 14.1758 17.709C14.2383 17.4551 14.2695 17.1855 14.2695 16.9004V16.7656C14.2695 16.4844 14.2383 16.2188 14.1758 15.9688C14.1172 15.7148 14.0234 15.4902 13.8945 15.2949C13.7695 15.0996 13.6094 14.9473 13.4141 14.8379C13.2227 14.7246 12.9941 14.668 12.7285 14.668C12.4629 14.668 12.2324 14.7246 12.0371 14.8379C11.8457 14.9473 11.6875 15.0996 11.5625 15.2949C11.4375 15.4902 11.3457 15.7148 11.2871 15.9688C11.2285 16.2188 11.1992 16.4844 11.1992 16.7656ZM18.2832 14.8672V20H16.8711V13.6602H18.2188L18.2832 14.8672ZM20.2227 13.6191L20.2109 14.9316C20.125 14.916 20.0312 14.9043 19.9297 14.8965C19.832 14.8887 19.7344 14.8848 19.6367 14.8848C19.3945 14.8848 19.1816 14.9199 18.998 14.9902C18.8145 15.0566 18.6602 15.1543 18.5352 15.2832C18.4141 15.4082 18.3203 15.5605 18.2539 15.7402C18.1875 15.9199 18.1484 16.1211 18.1367 16.3438L17.8145 16.3672C17.8145 15.9688 17.8535 15.5996 17.9316 15.2598C18.0098 14.9199 18.127 14.6211 18.2832 14.3633C18.4434 14.1055 18.6426 13.9043 18.8809 13.7598C19.123 13.6152 19.4023 13.543 19.7188 13.543C19.8047 13.543 19.8965 13.5508 19.9941 13.5664C20.0957 13.582 20.1719 13.5996 20.2227 13.6191ZM23.7852 20.1172C23.3164 20.1172 22.8926 20.041 22.5137 19.8887C22.1387 19.7324 21.8184 19.5156 21.5527 19.2383C21.291 18.9609 21.0898 18.6348 20.9492 18.2598C20.8086 17.8848 20.7383 17.4805 20.7383 17.0469V16.8125C20.7383 16.3164 20.8105 15.8672 20.9551 15.4648C21.0996 15.0625 21.3008 14.7188 21.5586 14.4336C21.8164 14.1445 22.1211 13.9238 22.4727 13.7715C22.8242 13.6191 23.2051 13.543 23.6152 13.543C24.0684 13.543 24.4648 13.6191 24.8047 13.7715C25.1445 13.9238 25.4258 14.1387 25.6484 14.416C25.875 14.6895 26.043 15.0156 26.1523 15.3945C26.2656 15.7734 26.3223 16.1914 26.3223 16.6484V17.252H21.4238V16.2383H24.9277V16.127C24.9199 15.873 24.8691 15.6348 24.7754 15.4121C24.6855 15.1895 24.5469 15.0098 24.3594 14.873C24.1719 14.7363 23.9219 14.668 23.6094 14.668C23.375 14.668 23.166 14.7188 22.9824 14.8203C22.8027 14.918 22.6523 15.0605 22.5312 15.248C22.4102 15.4355 22.3164 15.6621 22.25 15.9277C22.1875 16.1895 22.1562 16.4844 22.1562 16.8125V17.0469C22.1562 17.3242 22.1934 17.582 22.2676 17.8203C22.3457 18.0547 22.459 18.2598 22.6074 18.4355C22.7559 18.6113 22.9355 18.75 23.1465 18.8516C23.3574 18.9492 23.5977 18.998 23.8672 18.998C24.207 18.998 24.5098 18.9297 24.7754 18.793C25.041 18.6562 25.2715 18.4629 25.4668 18.2129L26.2109 18.9336C26.0742 19.1328 25.8965 19.3242 25.6777 19.5078C25.459 19.6875 25.1914 19.834 24.875 19.9473C24.5625 20.0605 24.1992 20.1172 23.7852 20.1172ZM28.8359 14.9492V20H27.4238V13.6602H28.7539L28.8359 14.9492ZM28.6074 16.5957L28.127 16.5898C28.127 16.1523 28.1816 15.748 28.291 15.377C28.4004 15.0059 28.5605 14.6836 28.7715 14.4102C28.9824 14.1328 29.2441 13.9199 29.5566 13.7715C29.873 13.6191 30.2383 13.543 30.6523 13.543C30.9414 13.543 31.2051 13.5859 31.4434 13.6719C31.6855 13.7539 31.8945 13.8848 32.0703 14.0645C32.25 14.2441 32.3867 14.4746 32.4805 14.7559C32.5781 15.0371 32.627 15.377 32.627 15.7754V20H31.2148V15.8984C31.2148 15.5898 31.168 15.3477 31.0742 15.1719C30.9844 14.9961 30.8535 14.8711 30.6816 14.7969C30.5137 14.7188 30.3125 14.6797 30.0781 14.6797C29.8125 14.6797 29.5859 14.7305 29.3984 14.832C29.2148 14.9336 29.0645 15.0723 28.9473 15.248C28.8301 15.4238 28.7441 15.627 28.6895 15.8574C28.6348 16.0879 28.6074 16.334 28.6074 16.5957ZM32.5391 16.2207L31.877 16.3672C31.877 15.9844 31.9297 15.623 32.0352 15.2832C32.1445 14.9395 32.3027 14.6387 32.5098 14.3809C32.7207 14.1191 32.9805 13.9141 33.2891 13.7656C33.5977 13.6172 33.9512 13.543 34.3496 13.543C34.6738 13.543 34.9629 13.5879 35.2168 13.6777C35.4746 13.7637 35.6934 13.9004 35.873 14.0879C36.0527 14.2754 36.1895 14.5195 36.2832 14.8203C36.377 15.1172 36.4238 15.4766 36.4238 15.8984V20H35.0059V15.8926C35.0059 15.5723 34.959 15.3242 34.8652 15.1484C34.7754 14.9727 34.6465 14.8516 34.4785 14.7852C34.3105 14.7148 34.1094 14.6797 33.875 14.6797C33.6562 14.6797 33.4629 14.7207 33.2949 14.8027C33.1309 14.8809 32.9922 14.9922 32.8789 15.1367C32.7656 15.2773 32.6797 15.4395 32.6211 15.623C32.5664 15.8066 32.5391 16.0059 32.5391 16.2207Z" fill="#F5F5F5"/>
</svg>
