<svg width="116" height="12" viewBox="0 0 116 12" fill="none" xmlns="http://www.w3.org/2000/svg">
<path d="M5.08301 7.29395H2.40234V5.44092H5.08301C5.47852 5.44092 5.7959 5.375 6.03516 5.24316C6.2793 5.11133 6.45752 4.93066 6.56982 4.70117C6.68701 4.4668 6.74561 4.20312 6.74561 3.91016C6.74561 3.60742 6.68701 3.32666 6.56982 3.06787C6.45752 2.8042 6.2793 2.5918 6.03516 2.43066C5.7959 2.26953 5.47852 2.18896 5.08301 2.18896H3.2666V11H0.878906V0.335938H5.08301C5.93262 0.335938 6.66016 0.489746 7.26562 0.797363C7.87598 1.10498 8.34229 1.52734 8.66455 2.06445C8.9917 2.59668 9.15527 3.20703 9.15527 3.89551C9.15527 4.58398 8.9917 5.18213 8.66455 5.68994C8.34229 6.19775 7.87598 6.59326 7.26562 6.87646C6.66016 7.15479 5.93262 7.29395 5.08301 7.29395ZM10.6055 0.335938H14.6997C15.5151 0.335938 16.2207 0.458008 16.8164 0.702148C17.417 0.946289 17.8784 1.30762 18.2007 1.78613C18.5229 2.26465 18.6841 2.85547 18.6841 3.55859C18.6841 4.14453 18.5889 4.64258 18.3984 5.05273C18.208 5.46289 17.9395 5.80225 17.5928 6.0708C17.251 6.33936 16.8506 6.55664 16.3916 6.72266L15.6152 7.14746H12.1289L12.1143 5.29443H14.707C15.0635 5.29443 15.3589 5.23096 15.5933 5.104C15.8276 4.97705 16.0034 4.79883 16.1206 4.56934C16.2427 4.33496 16.3037 4.06152 16.3037 3.74902C16.3037 3.42676 16.2427 3.14844 16.1206 2.91406C15.9985 2.67969 15.8179 2.50146 15.5786 2.37939C15.3442 2.25244 15.0513 2.18896 14.6997 2.18896H12.9932V11H10.6055V0.335938ZM16.5088 11L14.1138 6.26123L16.6333 6.25391L19.0649 10.8901V11H16.5088ZM29.1943 5.43359V5.90967C29.1943 6.72021 29.082 7.44775 28.8574 8.09229C28.6377 8.73682 28.3228 9.28613 27.9126 9.74023C27.5073 10.1943 27.0239 10.5435 26.4624 10.7876C25.9058 11.0269 25.2881 11.1465 24.6094 11.1465C23.9307 11.1465 23.3105 11.0269 22.749 10.7876C22.1875 10.5435 21.6992 10.1943 21.2842 9.74023C20.874 9.28613 20.5566 8.73682 20.332 8.09229C20.1074 7.44775 19.9951 6.72021 19.9951 5.90967V5.43359C19.9951 4.62305 20.1074 3.89551 20.332 3.25098C20.5566 2.60156 20.8716 2.0498 21.2769 1.5957C21.687 1.1416 22.1729 0.794922 22.7344 0.555664C23.2959 0.311523 23.916 0.189453 24.5947 0.189453C25.2734 0.189453 25.8936 0.311523 26.4551 0.555664C27.0166 0.794922 27.5 1.1416 27.9053 1.5957C28.3154 2.0498 28.6328 2.60156 28.8574 3.25098C29.082 3.89551 29.1943 4.62305 29.1943 5.43359ZM26.7847 5.90967V5.41895C26.7847 4.87695 26.7358 4.39844 26.6382 3.9834C26.5405 3.56348 26.3989 3.21191 26.2134 2.92871C26.0278 2.64551 25.7983 2.43311 25.5249 2.2915C25.2515 2.14502 24.9414 2.07178 24.5947 2.07178C24.2334 2.07178 23.9185 2.14502 23.6499 2.2915C23.3813 2.43311 23.1543 2.64551 22.9688 2.92871C22.7881 3.21191 22.6489 3.56348 22.5513 3.9834C22.4585 4.39844 22.4121 4.87695 22.4121 5.41895V5.90967C22.4121 6.44678 22.4585 6.92529 22.5513 7.34521C22.6489 7.76025 22.7905 8.11182 22.9761 8.3999C23.1616 8.68799 23.3887 8.90527 23.6572 9.05176C23.9307 9.19824 24.248 9.27148 24.6094 9.27148C24.9561 9.27148 25.2637 9.19824 25.5322 9.05176C25.8057 8.90527 26.0352 8.68799 26.2207 8.3999C26.4062 8.11182 26.5454 7.76025 26.6382 7.34521C26.7358 6.92529 26.7847 6.44678 26.7847 5.90967ZM39.2505 5.36768V9.66699C39.0747 9.86719 38.8062 10.082 38.4448 10.3115C38.0884 10.541 37.6318 10.7388 37.0752 10.9048C36.5186 11.0659 35.8545 11.1465 35.083 11.1465C34.3848 11.1465 33.75 11.0342 33.1787 10.8096C32.6074 10.5801 32.1167 10.2456 31.7065 9.80615C31.2964 9.36182 30.979 8.81982 30.7544 8.18018C30.5347 7.54053 30.4248 6.80811 30.4248 5.98291V5.35303C30.4248 4.52783 30.5347 3.79541 30.7544 3.15576C30.9741 2.51611 31.2842 1.97656 31.6846 1.53711C32.085 1.09277 32.561 0.755859 33.1128 0.526367C33.6646 0.296875 34.2749 0.182129 34.9438 0.182129C35.896 0.182129 36.6748 0.335938 37.2803 0.643555C37.8857 0.946289 38.3447 1.36621 38.6572 1.90332C38.9746 2.44043 39.1699 3.05811 39.2432 3.75635H36.9434C36.8945 3.3999 36.7969 3.09229 36.6504 2.8335C36.5088 2.57471 36.3062 2.37695 36.0425 2.24023C35.7788 2.09863 35.437 2.02783 35.0171 2.02783C34.6802 2.02783 34.375 2.09863 34.1016 2.24023C33.833 2.37695 33.606 2.58447 33.4204 2.86279C33.2349 3.14111 33.0933 3.48779 32.9956 3.90283C32.8979 4.31299 32.8491 4.7915 32.8491 5.33838V5.98291C32.8491 6.52979 32.8979 7.01074 32.9956 7.42578C33.0981 7.84082 33.2471 8.1875 33.4424 8.46582C33.6377 8.73926 33.8843 8.94678 34.1821 9.08838C34.4849 9.22998 34.8364 9.30078 35.2368 9.30078C35.5493 9.30078 35.813 9.27637 36.0278 9.22754C36.2427 9.17383 36.4185 9.10791 36.5552 9.02979C36.6919 8.94678 36.7944 8.87109 36.8628 8.80273V7.03027H34.9658V5.36768H39.2505ZM40.8838 0.335938H44.978C45.7935 0.335938 46.499 0.458008 47.0947 0.702148C47.6953 0.946289 48.1567 1.30762 48.479 1.78613C48.8013 2.26465 48.9624 2.85547 48.9624 3.55859C48.9624 4.14453 48.8672 4.64258 48.6768 5.05273C48.4863 5.46289 48.2178 5.80225 47.8711 6.0708C47.5293 6.33936 47.1289 6.55664 46.6699 6.72266L45.8936 7.14746H42.4072L42.3926 5.29443H44.9854C45.3418 5.29443 45.6372 5.23096 45.8716 5.104C46.106 4.97705 46.2817 4.79883 46.3989 4.56934C46.521 4.33496 46.582 4.06152 46.582 3.74902C46.582 3.42676 46.521 3.14844 46.3989 2.91406C46.2769 2.67969 46.0962 2.50146 45.8569 2.37939C45.6226 2.25244 45.3296 2.18896 44.978 2.18896H43.2715V11H40.8838V0.335938ZM46.7871 11L44.3921 6.26123L46.9116 6.25391L49.3433 10.8901V11H46.7871ZM55.0122 2.36475L52.2583 11H49.7095L53.6572 0.335938H55.2686L55.0122 2.36475ZM57.2974 11L54.5361 2.36475L54.2505 0.335938H55.8838L59.8462 11H57.2974ZM57.1802 7.03027V8.87598H51.6211V7.03027H57.1802ZM61.875 0.335938H63.8525L66.416 7.96045L68.9722 0.335938H70.9497L67.2144 11H65.6104L61.875 0.335938ZM60.7324 0.335938H62.7466L63.1201 8.23877V11H60.7324V0.335938ZM70.0781 0.335938H72.0996V11H69.7046V8.23877L70.0781 0.335938ZM75.0146 0.335938H76.9922L79.5557 7.96045L82.1118 0.335938H84.0894L80.354 11H78.75L75.0146 0.335938ZM73.8721 0.335938H75.8862L76.2598 8.23877V11H73.8721V0.335938ZM83.2178 0.335938H85.2393V11H82.8442V8.23877L83.2178 0.335938ZM94.2627 9.1543V11H88.5864V9.1543H94.2627ZM89.3994 0.335938V11H87.0117V0.335938H89.3994ZM93.5303 4.62793V6.41504H88.5864V4.62793H93.5303ZM94.27 0.335938V2.18896H88.5864V0.335938H94.27ZM95.4346 0.335938H99.5288C100.344 0.335938 101.05 0.458008 101.646 0.702148C102.246 0.946289 102.708 1.30762 103.03 1.78613C103.352 2.26465 103.513 2.85547 103.513 3.55859C103.513 4.14453 103.418 4.64258 103.228 5.05273C103.037 5.46289 102.769 5.80225 102.422 6.0708C102.08 6.33936 101.68 6.55664 101.221 6.72266L100.444 7.14746H96.958L96.9434 5.29443H99.5361C99.8926 5.29443 100.188 5.23096 100.422 5.104C100.657 4.97705 100.833 4.79883 100.95 4.56934C101.072 4.33496 101.133 4.06152 101.133 3.74902C101.133 3.42676 101.072 3.14844 100.95 2.91406C100.828 2.67969 100.647 2.50146 100.408 2.37939C100.173 2.25244 99.8804 2.18896 99.5288 2.18896H97.8223V11H95.4346V0.335938ZM101.338 11L98.9429 6.26123L101.462 6.25391L103.894 10.8901V11H101.338Z" fill="white"/>
<path d="M109.746 9.54248L108.42 8.26807L114.126 2.45264L115.452 3.72705L109.746 9.54248ZM114.126 9.54248L108.42 3.72705L109.746 2.45264L115.452 8.26807L114.126 9.54248Z" fill="#48C6EF"/>
</svg>
