<svg width="257" height="23" viewBox="0 0 257 23" fill="none" xmlns="http://www.w3.org/2000/svg">
<path d="M9.16602 14.5879H3.80469V10.8818H9.16602C9.95703 10.8818 10.5918 10.75 11.0703 10.4863C11.5586 10.2227 11.915 9.86133 12.1396 9.40234C12.374 8.93359 12.4912 8.40625 12.4912 7.82031C12.4912 7.21484 12.374 6.65332 12.1396 6.13574C11.915 5.6084 11.5586 5.18359 11.0703 4.86133C10.5918 4.53906 9.95703 4.37793 9.16602 4.37793H5.5332V22H0.757812V0.671875H9.16602C10.8652 0.671875 12.3203 0.979492 13.5312 1.59473C14.752 2.20996 15.6846 3.05469 16.3291 4.12891C16.9834 5.19336 17.3105 6.41406 17.3105 7.79102C17.3105 9.16797 16.9834 10.3643 16.3291 11.3799C15.6846 12.3955 14.752 13.1865 13.5312 13.7529C12.3203 14.3096 10.8652 14.5879 9.16602 14.5879ZM22.6109 0.671875H30.7994C32.4303 0.671875 33.8414 0.916016 35.0328 1.4043C36.234 1.89258 37.1568 2.61523 37.8014 3.57227C38.4459 4.5293 38.7682 5.71094 38.7682 7.11719C38.7682 8.28906 38.5777 9.28516 38.1969 10.1055C37.816 10.9258 37.2789 11.6045 36.5855 12.1416C35.902 12.6787 35.1012 13.1133 34.1832 13.4453L32.6305 14.2949H25.6578L25.6285 10.5889H30.8141C31.527 10.5889 32.1178 10.4619 32.5865 10.208C33.0553 9.9541 33.4068 9.59766 33.6412 9.13867C33.8854 8.66992 34.0074 8.12305 34.0074 7.49805C34.0074 6.85352 33.8854 6.29688 33.6412 5.82812C33.3971 5.35938 33.0357 5.00293 32.5572 4.75879C32.0885 4.50488 31.5025 4.37793 30.7994 4.37793H27.3863V22H22.6109V0.671875ZM34.4176 22L29.6275 12.5225L34.6666 12.5078L39.5299 21.7803V22H34.4176ZM62.1887 10.8672V11.8193C62.1887 13.4404 61.9641 14.8955 61.5148 16.1846C61.0754 17.4736 60.4455 18.5723 59.6252 19.4805C58.8146 20.3887 57.8479 21.0869 56.7248 21.5752C55.6115 22.0537 54.3762 22.293 53.0187 22.293C51.6613 22.293 50.4211 22.0537 49.298 21.5752C48.175 21.0869 47.1984 20.3887 46.3684 19.4805C45.548 18.5723 44.9133 17.4736 44.4641 16.1846C44.0148 14.8955 43.7902 13.4404 43.7902 11.8193V10.8672C43.7902 9.24609 44.0148 7.79102 44.4641 6.50195C44.9133 5.20312 45.5432 4.09961 46.3537 3.19141C47.174 2.2832 48.1457 1.58984 49.2687 1.11133C50.3918 0.623047 51.632 0.378906 52.9895 0.378906C54.3469 0.378906 55.5871 0.623047 56.7102 1.11133C57.8332 1.58984 58.8 2.2832 59.6105 3.19141C60.4309 4.09961 61.0656 5.20312 61.5148 6.50195C61.9641 7.79102 62.1887 9.24609 62.1887 10.8672ZM57.3693 11.8193V10.8379C57.3693 9.75391 57.2717 8.79688 57.0764 7.9668C56.8811 7.12695 56.5979 6.42383 56.2268 5.85742C55.8557 5.29102 55.3967 4.86621 54.8498 4.58301C54.3029 4.29004 53.6828 4.14355 52.9895 4.14355C52.2668 4.14355 51.6369 4.29004 51.0998 4.58301C50.5627 4.86621 50.1086 5.29102 49.7375 5.85742C49.3762 6.42383 49.0979 7.12695 48.9025 7.9668C48.717 8.79688 48.6242 9.75391 48.6242 10.8379V11.8193C48.6242 12.8936 48.717 13.8506 48.9025 14.6904C49.0979 15.5205 49.3811 16.2236 49.7521 16.7998C50.1232 17.376 50.5773 17.8105 51.1145 18.1035C51.6613 18.3965 52.2961 18.543 53.0187 18.543C53.7121 18.543 54.3273 18.3965 54.8645 18.1035C55.4113 17.8105 55.8703 17.376 56.2414 16.7998C56.6125 16.2236 56.8908 15.5205 57.0764 14.6904C57.2717 13.8506 57.3693 12.8936 57.3693 11.8193ZM84.701 10.7354V19.334C84.3494 19.7344 83.8123 20.1641 83.0896 20.623C82.3768 21.082 81.4637 21.4775 80.3504 21.8096C79.2371 22.1318 77.909 22.293 76.366 22.293C74.9695 22.293 73.7 22.0684 72.5574 21.6191C71.4148 21.1602 70.4334 20.4912 69.6131 19.6123C68.7928 18.7236 68.158 17.6396 67.7088 16.3604C67.2693 15.0811 67.0496 13.6162 67.0496 11.9658V10.7061C67.0496 9.05566 67.2693 7.59082 67.7088 6.31152C68.1482 5.03223 68.7684 3.95312 69.5691 3.07422C70.3699 2.18555 71.3221 1.51172 72.4256 1.05273C73.5291 0.59375 74.7498 0.364258 76.0877 0.364258C77.992 0.364258 79.5496 0.671875 80.7605 1.28711C81.9715 1.89258 82.8895 2.73242 83.5145 3.80664C84.1492 4.88086 84.5398 6.11621 84.6863 7.5127H80.0867C79.9891 6.7998 79.7937 6.18457 79.5008 5.66699C79.2176 5.14941 78.8123 4.75391 78.285 4.48047C77.7576 4.19727 77.074 4.05566 76.2342 4.05566C75.5603 4.05566 74.95 4.19727 74.4031 4.48047C73.866 4.75391 73.4119 5.16895 73.0408 5.72559C72.6697 6.28223 72.3865 6.97559 72.1912 7.80566C71.9959 8.62598 71.8982 9.58301 71.8982 10.6768V11.9658C71.8982 13.0596 71.9959 14.0215 72.1912 14.8516C72.3963 15.6816 72.6941 16.375 73.0848 16.9316C73.4754 17.4785 73.9686 17.8936 74.5643 18.1768C75.1697 18.46 75.8728 18.6016 76.6736 18.6016C77.2986 18.6016 77.826 18.5527 78.2557 18.4551C78.6853 18.3477 79.0369 18.2158 79.3103 18.0596C79.5838 17.8936 79.7889 17.7422 79.9256 17.6055V14.0605H76.1316V10.7354H84.701ZM90.3676 0.671875H98.5561C100.187 0.671875 101.598 0.916016 102.789 1.4043C103.991 1.89258 104.913 2.61523 105.558 3.57227C106.203 4.5293 106.525 5.71094 106.525 7.11719C106.525 8.28906 106.334 9.28516 105.954 10.1055C105.573 10.9258 105.036 11.6045 104.342 12.1416C103.659 12.6787 102.858 13.1133 101.94 13.4453L100.387 14.2949H93.4145L93.3852 10.5889H98.5707C99.2836 10.5889 99.8744 10.4619 100.343 10.208C100.812 9.9541 101.163 9.59766 101.398 9.13867C101.642 8.66992 101.764 8.12305 101.764 7.49805C101.764 6.85352 101.642 6.29688 101.398 5.82812C101.154 5.35938 100.792 5.00293 100.314 4.75879C99.8451 4.50488 99.2592 4.37793 98.5561 4.37793H95.143V22H90.3676V0.671875ZM102.174 22L97.3842 12.5225L102.423 12.5078L107.287 21.7803V22H102.174ZM121.024 4.72949L115.517 22H110.419L118.314 0.671875H121.537L121.024 4.72949ZM125.595 22L120.072 4.72949L119.501 0.671875H122.768L130.692 22H125.595ZM125.36 14.0605V17.752H114.242V14.0605H125.36ZM137.15 0.671875H141.105L146.232 15.9209L151.344 0.671875H155.299L147.829 22H144.621L137.15 0.671875ZM134.865 0.671875H138.893L139.64 16.4775V22H134.865V0.671875ZM153.556 0.671875H157.599V22H152.809V16.4775L153.556 0.671875ZM165.829 0.671875H169.784L174.911 15.9209L180.024 0.671875H183.979L176.508 22H173.3L165.829 0.671875ZM163.544 0.671875H167.572L168.32 16.4775V22H163.544V0.671875ZM182.236 0.671875H186.279V22H181.488V16.4775L182.236 0.671875ZM206.725 18.3086V22H195.373V18.3086H206.725ZM196.999 0.671875V22H192.223V0.671875H196.999ZM205.261 9.25586V12.8301H195.373V9.25586H205.261ZM206.74 0.671875V4.37793H195.373V0.671875H206.74ZM211.469 0.671875H219.658C221.288 0.671875 222.7 0.916016 223.891 1.4043C225.092 1.89258 226.015 2.61523 226.66 3.57227C227.304 4.5293 227.626 5.71094 227.626 7.11719C227.626 8.28906 227.436 9.28516 227.055 10.1055C226.674 10.9258 226.137 11.6045 225.444 12.1416C224.76 12.6787 223.959 13.1133 223.041 13.4453L221.489 14.2949H214.516L214.487 10.5889H219.672C220.385 10.5889 220.976 10.4619 221.445 10.208C221.913 9.9541 222.265 9.59766 222.499 9.13867C222.744 8.66992 222.866 8.12305 222.866 7.49805C222.866 6.85352 222.744 6.29688 222.499 5.82812C222.255 5.35938 221.894 5.00293 221.415 4.75879C220.947 4.50488 220.361 4.37793 219.658 4.37793H216.245V22H211.469V0.671875ZM223.276 22L218.486 12.5225L223.525 12.5078L228.388 21.7803V22H223.276Z" fill="#1E1C1C"/>
<path d="M244.892 19.085L242.241 16.5361L253.652 4.90527L256.303 7.4541L244.892 19.085ZM253.652 19.085L242.241 7.4541L244.892 4.90527L256.303 16.5361L253.652 19.085Z" fill="#48C6EF"/>
</svg>
