<svg version="1.2" xmlns="http://www.w3.org/2000/svg" viewBox="0 0 267 566" width="267" height="566">
	<title>Vector 1-svg</title>
	<style>
		.s0 { fill: #59a9e4 } 
	</style>
	<path id="Layer" class="s0" d="m-12 489.4v-1020.4c0-44.2 35.8-80 80-80h14.8c33.7 0 63.8 21.1 75.3 52.8l14.4 40.1c5.2 14.4 6.2 30.1 2.8 45l-19.5 85c-4.4 19.1-1.6 39.1 7.7 56.2l48.5 88.9c11.1 20.3 12.7 44.4 4.3 66l-10.1 25.8c-10.1 25.8 2.6 55 28.4 65.2 35 14 42.9 60 14.6 84.9l-28.4 25c-24 21.2-31.7 55.4-19 84.7l35.1 81c9 20.6 8.8 44.1-0.4 64.6l-34.9 77.5c-8.7 19.4-9.3 41.5-1.7 61.4l19.8 52c16.8 44-7.8 92.9-53.1 105.6l-42 11.8c-15.1 4.2-31 4-46-0.8l-49.3-15.7c-7.1-2.3-13.8-5.9-19.6-10.7-13.7-11.3-21.7-28.1-21.7-45.9z"/>
</svg>