<svg width="255" height="552" viewBox="0 0 255 552" fill="none" xmlns="http://www.w3.org/2000/svg">
<path d="M228.402 175.202L201.61 115C180.521 67.6152 205.485 12.4401 255 -3L-209 -16V513.699L-191.109 527.402C-163.793 548.323 -127.671 553.813 -95.3733 541.952C-74.0221 534.111 -50.6423 533.746 -29.0568 540.917L-7.84413 547.964C16.7383 556.131 43.7616 551.745 64.5001 536.224L66.7182 534.564C84.3591 521.361 107.005 516.797 128.382 522.136C187.591 536.922 237.873 477.093 213.119 421.313L203.159 398.868C193.387 376.849 193.385 351.724 203.154 329.703L228.461 272.654C242.226 241.624 242.205 206.215 228.402 175.202Z" fill="#59A9E4"/>
</svg>
