<svg width="296" height="1136" viewBox="0 0 296 1136" fill="none" xmlns="http://www.w3.org/2000/svg">
<path d="M-5.13638 1042.64L-12 -7H130.102C137.666 -7 145.195 -5.97791 152.485 -3.96148C206.017 10.8451 230.679 72.6159 202.065 120.219L186.782 145.645C165.353 181.295 174.508 227.391 207.934 252.146C242.039 277.403 250.775 324.749 227.929 360.515L226.987 361.989C208.366 391.141 209.874 428.808 230.768 456.378L284.997 527.935C306.048 555.714 292.332 595.972 258.698 605.118C223.078 614.804 210.42 658.814 235.45 685.945L261.127 713.777C286.929 741.744 286.589 784.937 260.351 812.495L251.814 821.461C230.607 843.734 223.016 875.69 231.941 905.121L250.617 966.709C268.869 1026.9 237.548 1090.97 178.838 1113.54L140.75 1128.18C112.757 1138.94 81.619 1138.04 54.2925 1125.69L46.5622 1122.19C28.3951 1113.97 13.5594 1099.83 4.48858 1082.07C-1.75059 1069.86 -5.0467 1056.36 -5.13638 1042.64Z" fill="#59A9E4"/>
</svg>
