<svg width="1024" height="70" viewBox="0 0 1024 70" fill="none" xmlns="http://www.w3.org/2000/svg">
<path d="M1024 34.9569L964.001 0.314211L963.999 69.5962L1024 34.9569ZM-0.000168545 40.9282L970 40.9554L970 28.9554L0.000168545 28.9282L-0.000168545 40.9282Z" fill="#124362"/>
<ellipse cx="99.2498" cy="34.5001" rx="15.6529" ry="17.4474" fill="#124362"/>
<path d="M390.361 34.5001C390.361 44.136 383.353 51.9475 374.708 51.9475C366.063 51.9475 359.055 44.136 359.055 34.5001C359.055 24.8642 366.063 17.0527 374.708 17.0527C383.353 17.0527 390.361 24.8642 390.361 34.5001Z" fill="#124362"/>
<ellipse cx="644.13" cy="34.5001" rx="15.6529" ry="17.4474" fill="#124362"/>
<path d="M937.924 34.5001C937.924 44.136 930.916 51.9475 922.271 51.9475C913.626 51.9475 906.618 44.136 906.618 34.5001C906.618 24.8642 913.626 17.0527 922.271 17.0527C930.916 17.0527 937.924 24.8642 937.924 34.5001Z" fill="#124362"/>
</svg>
