<svg width="1141" height="70" viewBox="0 0 1141 70" fill="none" xmlns="http://www.w3.org/2000/svg">
<path d="M0 35H772" stroke="#F5F5F5" stroke-width="12"/>
<path d="M1140.5 34.9493L1080.5 0.313464L1080.5 69.5955L1140.5 34.9493ZM577.001 40.9983L1086.5 40.954L1086.5 28.954L576.999 28.9983L577.001 40.9983Z" fill="#124362"/>
<ellipse cx="106.502" cy="34.5" rx="17.5021" ry="19.5" fill="#F5F5F5"/>
<path d="M432.004 34.5C432.004 45.2696 424.168 54 414.502 54C404.836 54 397 45.2696 397 34.5C397 23.7304 404.836 15 414.502 15C424.168 15 432.004 23.7304 432.004 34.5Z" fill="#F5F5F5"/>
<ellipse cx="722.502" cy="34.5" rx="17.5021" ry="19.5" fill="#124362"/>
<path d="M1051 34.5C1051 45.2696 1043.17 54 1033.5 54C1023.84 54 1016 45.2696 1016 34.5C1016 23.7304 1023.84 15 1033.5 15C1043.17 15 1051 23.7304 1051 34.5Z" fill="#124362"/>
</svg>
