<svg width="1140" height="70" viewBox="0 0 1140 70" fill="none" xmlns="http://www.w3.org/2000/svg">
<path d="M0 35H570" stroke="#F5F5F5" stroke-width="12"/>
<path d="M1140 34.9487L1080 0.312866L1080 69.5949L1140 34.9487ZM570.001 40.9983L1086 40.9534L1086 28.9534L569.999 28.9983L570.001 40.9983Z" fill="#124362"/>
<ellipse cx="106.455" cy="34.5" rx="17.4944" ry="19.5" fill="#F5F5F5"/>
<path d="M431.815 34.5C431.815 45.2696 423.982 54 414.32 54C404.659 54 396.826 45.2696 396.826 34.5C396.826 23.7304 404.659 15 414.32 15C423.982 15 431.815 23.7304 431.815 34.5Z" fill="#F5F5F5"/>
<ellipse cx="715.438" cy="34.5" rx="17.4944" ry="19.5" fill="#124362"/>
<path d="M1043.8 34.5C1043.8 45.2696 1035.96 54 1026.3 54C1016.64 54 1008.81 45.2696 1008.81 34.5C1008.81 23.7304 1016.64 15 1026.3 15C1035.96 15 1043.8 23.7304 1043.8 34.5Z" fill="#124362"/>
</svg>
