<svg width="1020" height="37" viewBox="0 0 1020 37" fill="none" xmlns="http://www.w3.org/2000/svg">
<path d="M59.6816 25.502V29H46.832V25.502H59.6816ZM48.0625 3.40625V29H43.6504V3.40625H48.0625ZM61.8613 19.7012V19.2969C61.8613 17.9258 62.0605 16.6543 62.459 15.4824C62.8574 14.2988 63.4316 13.2734 64.1816 12.4062C64.9434 11.5273 65.8691 10.8477 66.959 10.3672C68.0605 9.875 69.3027 9.62891 70.6855 9.62891C72.0801 9.62891 73.3223 9.875 74.4121 10.3672C75.5137 10.8477 76.4453 11.5273 77.207 12.4062C77.9688 13.2734 78.5488 14.2988 78.9473 15.4824C79.3457 16.6543 79.5449 17.9258 79.5449 19.2969V19.7012C79.5449 21.0723 79.3457 22.3438 78.9473 23.5156C78.5488 24.6875 77.9688 25.7129 77.207 26.5918C76.4453 27.459 75.5195 28.1387 74.4297 28.6309C73.3398 29.1113 72.1035 29.3516 70.7207 29.3516C69.3262 29.3516 68.0781 29.1113 66.9766 28.6309C65.8867 28.1387 64.9609 27.459 64.1992 26.5918C63.4375 25.7129 62.8574 24.6875 62.459 23.5156C62.0605 22.3438 61.8613 21.0723 61.8613 19.7012ZM66.0977 19.2969V19.7012C66.0977 20.5566 66.1855 21.3652 66.3613 22.127C66.5371 22.8887 66.8125 23.5566 67.1875 24.1309C67.5625 24.7051 68.043 25.1562 68.6289 25.4844C69.2148 25.8125 69.9121 25.9766 70.7207 25.9766C71.5059 25.9766 72.1855 25.8125 72.7598 25.4844C73.3457 25.1562 73.8262 24.7051 74.2012 24.1309C74.5762 23.5566 74.8516 22.8887 75.0273 22.127C75.2148 21.3652 75.3086 20.5566 75.3086 19.7012V19.2969C75.3086 18.4531 75.2148 17.6562 75.0273 16.9062C74.8516 16.1445 74.5703 15.4707 74.1836 14.8848C73.8086 14.2988 73.3281 13.8418 72.7422 13.5137C72.168 13.1738 71.4824 13.0039 70.6855 13.0039C69.8887 13.0039 69.1973 13.1738 68.6113 13.5137C68.0371 13.8418 67.5625 14.2988 67.1875 14.8848C66.8125 15.4707 66.5371 16.1445 66.3613 16.9062C66.1855 17.6562 66.0977 18.4531 66.0977 19.2969ZM87.3496 13.6016V29H83.1133V9.98047H87.1562L87.3496 13.6016ZM93.168 9.85742L93.1328 13.7949C92.875 13.748 92.5938 13.7129 92.2891 13.6895C91.9961 13.666 91.7031 13.6543 91.4102 13.6543C90.6836 13.6543 90.0449 13.7598 89.4941 13.9707C88.9434 14.1699 88.4805 14.4629 88.1055 14.8496C87.7422 15.2246 87.4609 15.6816 87.2617 16.2207C87.0625 16.7598 86.9453 17.3633 86.9102 18.0312L85.9434 18.1016C85.9434 16.9062 86.0605 15.7988 86.2949 14.7793C86.5293 13.7598 86.8809 12.8633 87.3496 12.0898C87.8301 11.3164 88.4277 10.7129 89.1426 10.2793C89.8691 9.8457 90.707 9.62891 91.6562 9.62891C91.9141 9.62891 92.1895 9.65234 92.4824 9.69922C92.7871 9.74609 93.0156 9.79883 93.168 9.85742ZM103.855 29.3516C102.449 29.3516 101.178 29.123 100.041 28.666C98.916 28.1973 97.9551 27.5469 97.1582 26.7148C96.373 25.8828 95.7695 24.9043 95.3477 23.7793C94.9258 22.6543 94.7148 21.4414 94.7148 20.1406V19.4375C94.7148 17.9492 94.9316 16.6016 95.3652 15.3945C95.7988 14.1875 96.4023 13.1562 97.1758 12.3008C97.9492 11.4336 98.8633 10.7715 99.918 10.3145C100.973 9.85742 102.115 9.62891 103.346 9.62891C104.705 9.62891 105.895 9.85742 106.914 10.3145C107.934 10.7715 108.777 11.416 109.445 12.248C110.125 13.0684 110.629 14.0469 110.957 15.1836C111.297 16.3203 111.467 17.5742 111.467 18.9453V20.7559H96.7715V17.7148H107.283V17.3809C107.26 16.6191 107.107 15.9043 106.826 15.2363C106.557 14.5684 106.141 14.0293 105.578 13.6191C105.016 13.209 104.266 13.0039 103.328 13.0039C102.625 13.0039 101.998 13.1562 101.447 13.4609C100.908 13.7539 100.457 14.1816 100.094 14.7441C99.7305 15.3066 99.4492 15.9863 99.25 16.7832C99.0625 17.5684 98.9688 18.4531 98.9688 19.4375V20.1406C98.9688 20.9727 99.0801 21.7461 99.3027 22.4609C99.5371 23.1641 99.877 23.7793 100.322 24.3066C100.768 24.834 101.307 25.25 101.939 25.5547C102.572 25.8477 103.293 25.9941 104.102 25.9941C105.121 25.9941 106.029 25.7891 106.826 25.3789C107.623 24.9688 108.314 24.3887 108.9 23.6387L111.133 25.8008C110.723 26.3984 110.189 26.9727 109.533 27.5234C108.877 28.0625 108.074 28.502 107.125 28.8418C106.188 29.1816 105.098 29.3516 103.855 29.3516ZM119.008 13.8477V29H114.771V9.98047H118.762L119.008 13.8477ZM118.322 18.7871L116.881 18.7695C116.881 17.457 117.045 16.2441 117.373 15.1309C117.701 14.0176 118.182 13.0508 118.814 12.2305C119.447 11.3984 120.232 10.7598 121.17 10.3145C122.119 9.85742 123.215 9.62891 124.457 9.62891C125.324 9.62891 126.115 9.75781 126.83 10.0156C127.557 10.2617 128.184 10.6543 128.711 11.1934C129.25 11.7324 129.66 12.4238 129.941 13.2676C130.234 14.1113 130.381 15.1309 130.381 16.3262V29H126.145V16.6953C126.145 15.7695 126.004 15.043 125.723 14.5156C125.453 13.9883 125.061 13.6133 124.545 13.3906C124.041 13.1562 123.438 13.0391 122.734 13.0391C121.938 13.0391 121.258 13.1914 120.695 13.4961C120.145 13.8008 119.693 14.2168 119.342 14.7441C118.99 15.2715 118.732 15.8809 118.568 16.5723C118.404 17.2637 118.322 18.002 118.322 18.7871ZM130.117 17.6621L128.131 18.1016C128.131 16.9531 128.289 15.8691 128.605 14.8496C128.934 13.8184 129.408 12.916 130.029 12.1426C130.662 11.3574 131.441 10.7422 132.367 10.2969C133.293 9.85156 134.354 9.62891 135.549 9.62891C136.521 9.62891 137.389 9.76367 138.15 10.0332C138.924 10.291 139.58 10.7012 140.119 11.2637C140.658 11.8262 141.068 12.5586 141.35 13.4609C141.631 14.3516 141.771 15.4297 141.771 16.6953V29H137.518V16.6777C137.518 15.7168 137.377 14.9727 137.096 14.4453C136.826 13.918 136.439 13.5547 135.936 13.3555C135.432 13.1445 134.828 13.0391 134.125 13.0391C133.469 13.0391 132.889 13.1621 132.385 13.4082C131.893 13.6426 131.477 13.9766 131.137 14.4102C130.797 14.832 130.539 15.3184 130.363 15.8691C130.199 16.4199 130.117 17.0176 130.117 17.6621Z" fill="#124362"/>
<path d="M328.066 3.40625V29H323.654V3.40625H328.066ZM337.382 13.6367V36.3125H333.146V9.98047H337.048L337.382 13.6367ZM349.775 19.3145V19.6836C349.775 21.0664 349.611 22.3496 349.283 23.5332C348.966 24.7051 348.492 25.7305 347.859 26.6094C347.238 27.4766 346.47 28.1504 345.556 28.6309C344.642 29.1113 343.587 29.3516 342.392 29.3516C341.208 29.3516 340.171 29.1348 339.281 28.7012C338.402 28.2559 337.658 27.6289 337.048 26.8203C336.439 26.0117 335.947 25.0625 335.572 23.9727C335.208 22.8711 334.951 21.6641 334.798 20.3516V18.9277C334.951 17.5332 335.208 16.2676 335.572 15.1309C335.947 13.9941 336.439 13.0156 337.048 12.1953C337.658 11.375 338.402 10.7422 339.281 10.2969C340.16 9.85156 341.185 9.62891 342.357 9.62891C343.552 9.62891 344.613 9.86328 345.538 10.332C346.464 10.7891 347.244 11.4453 347.876 12.3008C348.509 13.1445 348.984 14.1641 349.3 15.3594C349.617 16.543 349.775 17.8613 349.775 19.3145ZM345.538 19.6836V19.3145C345.538 18.4355 345.456 17.6211 345.292 16.8711C345.128 16.1094 344.87 15.4414 344.519 14.8672C344.167 14.293 343.716 13.8477 343.165 13.5312C342.626 13.2031 341.976 13.0391 341.214 13.0391C340.464 13.0391 339.82 13.168 339.281 13.4258C338.742 13.6719 338.29 14.0176 337.927 14.4629C337.564 14.9082 337.283 15.4297 337.083 16.0273C336.884 16.6133 336.744 17.252 336.662 17.9434V21.3535C336.802 22.1973 337.042 22.9707 337.382 23.6738C337.722 24.377 338.203 24.9395 338.824 25.3613C339.456 25.7715 340.265 25.9766 341.249 25.9766C342.011 25.9766 342.662 25.8125 343.201 25.4844C343.74 25.1562 344.179 24.7051 344.519 24.1309C344.87 23.5449 345.128 22.8711 345.292 22.1094C345.456 21.3477 345.538 20.5391 345.538 19.6836ZM364.048 23.8496C364.048 23.4277 363.943 23.0469 363.732 22.707C363.521 22.3555 363.117 22.0391 362.519 21.7578C361.933 21.4766 361.066 21.2188 359.917 20.9844C358.91 20.7617 357.984 20.498 357.14 20.1934C356.308 19.877 355.593 19.4961 354.995 19.0508C354.398 18.6055 353.935 18.0781 353.607 17.4688C353.279 16.8594 353.115 16.1562 353.115 15.3594C353.115 14.5859 353.285 13.8535 353.624 13.1621C353.964 12.4707 354.451 11.8613 355.083 11.334C355.716 10.8066 356.484 10.3906 357.386 10.0859C358.3 9.78125 359.32 9.62891 360.445 9.62891C362.038 9.62891 363.404 9.89844 364.54 10.4375C365.689 10.9648 366.568 11.6855 367.177 12.5996C367.787 13.502 368.091 14.5215 368.091 15.6582H363.855C363.855 15.1543 363.726 14.6855 363.468 14.252C363.222 13.8066 362.847 13.4492 362.343 13.1797C361.839 12.8984 361.206 12.7578 360.445 12.7578C359.718 12.7578 359.115 12.875 358.634 13.1094C358.165 13.332 357.814 13.625 357.579 13.9883C357.357 14.3516 357.245 14.75 357.245 15.1836C357.245 15.5 357.304 15.7871 357.421 16.0449C357.55 16.291 357.761 16.5195 358.054 16.7305C358.347 16.9297 358.745 17.1172 359.249 17.293C359.765 17.4688 360.41 17.6387 361.183 17.8027C362.636 18.1074 363.884 18.5 364.927 18.9805C365.982 19.4492 366.79 20.0586 367.353 20.8086C367.915 21.5469 368.197 22.4844 368.197 23.6211C368.197 24.4648 368.015 25.2383 367.652 25.9414C367.3 26.6328 366.785 27.2363 366.105 27.752C365.425 28.2559 364.611 28.6484 363.662 28.9297C362.724 29.2109 361.669 29.3516 360.497 29.3516C358.775 29.3516 357.316 29.0469 356.12 28.4375C354.925 27.8164 354.017 27.0254 353.396 26.0645C352.787 25.0918 352.482 24.084 352.482 23.041H356.578C356.624 23.8262 356.841 24.4531 357.228 24.9219C357.626 25.3789 358.119 25.7129 358.704 25.9238C359.302 26.123 359.917 26.2227 360.55 26.2227C361.312 26.2227 361.951 26.123 362.466 25.9238C362.982 25.7129 363.374 25.4316 363.644 25.0801C363.913 24.7168 364.048 24.3066 364.048 23.8496ZM383.349 24.5176V9.98047H387.603V29H383.595L383.349 24.5176ZM383.947 20.5625L385.37 20.5273C385.37 21.8047 385.23 22.9824 384.949 24.0605C384.667 25.127 384.234 26.0586 383.648 26.8555C383.062 27.6406 382.312 28.2559 381.398 28.7012C380.484 29.1348 379.388 29.3516 378.111 29.3516C377.185 29.3516 376.335 29.2168 375.562 28.9473C374.788 28.6777 374.12 28.2617 373.558 27.6992C373.007 27.1367 372.579 26.4043 372.275 25.502C371.97 24.5996 371.818 23.5215 371.818 22.2676V9.98047H376.054V22.3027C376.054 22.9941 376.136 23.5742 376.3 24.043C376.464 24.5 376.687 24.8691 376.968 25.1504C377.249 25.4316 377.578 25.6309 377.953 25.748C378.328 25.8652 378.726 25.9238 379.148 25.9238C380.355 25.9238 381.304 25.6895 381.995 25.2207C382.699 24.7402 383.197 24.0957 383.49 23.2871C383.794 22.4785 383.947 21.5703 383.947 20.5625ZM396.181 13.8477V29H391.945V9.98047H395.935L396.181 13.8477ZM395.495 18.7871L394.054 18.7695C394.054 17.457 394.218 16.2441 394.546 15.1309C394.874 14.0176 395.355 13.0508 395.988 12.2305C396.62 11.3984 397.406 10.7598 398.343 10.3145C399.292 9.85742 400.388 9.62891 401.63 9.62891C402.497 9.62891 403.288 9.75781 404.003 10.0156C404.73 10.2617 405.357 10.6543 405.884 11.1934C406.423 11.7324 406.833 12.4238 407.115 13.2676C407.408 14.1113 407.554 15.1309 407.554 16.3262V29H403.318V16.6953C403.318 15.7695 403.177 15.043 402.896 14.5156C402.626 13.9883 402.234 13.6133 401.718 13.3906C401.214 13.1562 400.611 13.0391 399.908 13.0391C399.111 13.0391 398.431 13.1914 397.869 13.4961C397.318 13.8008 396.867 14.2168 396.515 14.7441C396.163 15.2715 395.906 15.8809 395.742 16.5723C395.578 17.2637 395.495 18.002 395.495 18.7871ZM407.29 17.6621L405.304 18.1016C405.304 16.9531 405.462 15.8691 405.779 14.8496C406.107 13.8184 406.581 12.916 407.203 12.1426C407.835 11.3574 408.615 10.7422 409.54 10.2969C410.466 9.85156 411.527 9.62891 412.722 9.62891C413.695 9.62891 414.562 9.76367 415.324 10.0332C416.097 10.291 416.753 10.7012 417.292 11.2637C417.831 11.8262 418.242 12.5586 418.523 13.4609C418.804 14.3516 418.945 15.4297 418.945 16.6953V29H414.691V16.6777C414.691 15.7168 414.55 14.9727 414.269 14.4453C413.999 13.918 413.613 13.5547 413.109 13.3555C412.605 13.1445 412.001 13.0391 411.298 13.0391C410.642 13.0391 410.062 13.1621 409.558 13.4082C409.066 13.6426 408.65 13.9766 408.31 14.4102C407.97 14.832 407.712 15.3184 407.537 15.8691C407.372 16.4199 407.29 17.0176 407.29 17.6621Z" fill="#124362"/>
<path d="M606.839 29H601.372L601.408 25.502H606.839C608.421 25.502 609.745 25.1562 610.812 24.4648C611.89 23.7734 612.699 22.7832 613.238 21.4941C613.788 20.2051 614.064 18.6699 614.064 16.8887V15.5C614.064 14.1172 613.906 12.8926 613.589 11.8262C613.285 10.7598 612.828 9.86328 612.218 9.13672C611.62 8.41016 610.882 7.85937 610.003 7.48438C609.136 7.10938 608.134 6.92188 606.997 6.92188H601.267V3.40625H606.997C608.697 3.40625 610.249 3.69336 611.656 4.26758C613.062 4.83008 614.275 5.64453 615.294 6.71094C616.326 7.77734 617.117 9.05469 617.667 10.543C618.218 12.0312 618.494 13.6953 618.494 15.5352V16.8887C618.494 18.7285 618.218 20.3926 617.667 21.8809C617.117 23.3691 616.326 24.6465 615.294 25.7129C614.263 26.7676 613.033 27.582 611.603 28.1562C610.185 28.7188 608.597 29 606.839 29ZM603.816 3.40625V29H599.404V3.40625H603.816ZM621.693 19.7012V19.2969C621.693 17.9258 621.892 16.6543 622.29 15.4824C622.689 14.2988 623.263 13.2734 624.013 12.4062C624.775 11.5273 625.701 10.8477 626.79 10.3672C627.892 9.875 629.134 9.62891 630.517 9.62891C631.912 9.62891 633.154 9.875 634.244 10.3672C635.345 10.8477 636.277 11.5273 637.038 12.4062C637.8 13.2734 638.38 14.2988 638.779 15.4824C639.177 16.6543 639.376 17.9258 639.376 19.2969V19.7012C639.376 21.0723 639.177 22.3438 638.779 23.5156C638.38 24.6875 637.8 25.7129 637.038 26.5918C636.277 27.459 635.351 28.1387 634.261 28.6309C633.171 29.1113 631.935 29.3516 630.552 29.3516C629.158 29.3516 627.91 29.1113 626.808 28.6309C625.718 28.1387 624.792 27.459 624.031 26.5918C623.269 25.7129 622.689 24.6875 622.29 23.5156C621.892 22.3438 621.693 21.0723 621.693 19.7012ZM625.929 19.2969V19.7012C625.929 20.5566 626.017 21.3652 626.193 22.127C626.369 22.8887 626.644 23.5566 627.019 24.1309C627.394 24.7051 627.874 25.1562 628.46 25.4844C629.046 25.8125 629.744 25.9766 630.552 25.9766C631.337 25.9766 632.017 25.8125 632.591 25.4844C633.177 25.1562 633.658 24.7051 634.033 24.1309C634.408 23.5566 634.683 22.8887 634.859 22.127C635.046 21.3652 635.14 20.5566 635.14 19.7012V19.2969C635.14 18.4531 635.046 17.6562 634.859 16.9062C634.683 16.1445 634.402 15.4707 634.015 14.8848C633.64 14.2988 633.16 13.8418 632.574 13.5137C631.999 13.1738 631.314 13.0039 630.517 13.0039C629.72 13.0039 629.029 13.1738 628.443 13.5137C627.869 13.8418 627.394 14.2988 627.019 14.8848C626.644 15.4707 626.369 16.1445 626.193 16.9062C626.017 17.6562 625.929 18.4531 625.929 19.2969ZM647.462 2V29H643.208V2H647.462ZM651.294 19.7012V19.2969C651.294 17.9258 651.494 16.6543 651.892 15.4824C652.29 14.2988 652.865 13.2734 653.615 12.4062C654.376 11.5273 655.302 10.8477 656.392 10.3672C657.494 9.875 658.736 9.62891 660.119 9.62891C661.513 9.62891 662.755 9.875 663.845 10.3672C664.947 10.8477 665.878 11.5273 666.64 12.4062C667.402 13.2734 667.982 14.2988 668.38 15.4824C668.779 16.6543 668.978 17.9258 668.978 19.2969V19.7012C668.978 21.0723 668.779 22.3438 668.38 23.5156C667.982 24.6875 667.402 25.7129 666.64 26.5918C665.878 27.459 664.953 28.1387 663.863 28.6309C662.773 29.1113 661.537 29.3516 660.154 29.3516C658.759 29.3516 657.511 29.1113 656.41 28.6309C655.32 28.1387 654.394 27.459 653.632 26.5918C652.87 25.7129 652.29 24.6875 651.892 23.5156C651.494 22.3438 651.294 21.0723 651.294 19.7012ZM655.531 19.2969V19.7012C655.531 20.5566 655.619 21.3652 655.794 22.127C655.97 22.8887 656.245 23.5566 656.62 24.1309C656.995 24.7051 657.476 25.1562 658.062 25.4844C658.648 25.8125 659.345 25.9766 660.154 25.9766C660.939 25.9766 661.619 25.8125 662.193 25.4844C662.779 25.1562 663.259 24.7051 663.634 24.1309C664.009 23.5566 664.285 22.8887 664.46 22.127C664.648 21.3652 664.742 20.5566 664.742 19.7012V19.2969C664.742 18.4531 664.648 17.6562 664.46 16.9062C664.285 16.1445 664.003 15.4707 663.617 14.8848C663.242 14.2988 662.761 13.8418 662.175 13.5137C661.601 13.1738 660.915 13.0039 660.119 13.0039C659.322 13.0039 658.63 13.1738 658.044 13.5137C657.47 13.8418 656.995 14.2988 656.62 14.8848C656.245 15.4707 655.97 16.1445 655.794 16.9062C655.619 17.6562 655.531 18.4531 655.531 19.2969ZM676.783 13.6016V29H672.546V9.98047H676.589L676.783 13.6016ZM682.601 9.85742L682.566 13.7949C682.308 13.748 682.027 13.7129 681.722 13.6895C681.429 13.666 681.136 13.6543 680.843 13.6543C680.117 13.6543 679.478 13.7598 678.927 13.9707C678.376 14.1699 677.913 14.4629 677.538 14.8496C677.175 15.2246 676.894 15.6816 676.695 16.2207C676.495 16.7598 676.378 17.3633 676.343 18.0312L675.376 18.1016C675.376 16.9062 675.494 15.7988 675.728 14.7793C675.962 13.7598 676.314 12.8633 676.783 12.0898C677.263 11.3164 677.861 10.7129 678.576 10.2793C679.302 9.8457 680.14 9.62891 681.089 9.62891C681.347 9.62891 681.622 9.65234 681.915 9.69922C682.22 9.74609 682.449 9.79883 682.601 9.85742Z" fill="#124362"/>
<path d="M920.086 22.4082C920.086 21.8809 920.004 21.4121 919.84 21.002C919.688 20.5918 919.412 20.2168 919.014 19.877C918.615 19.5371 918.053 19.209 917.326 18.8926C916.611 18.5645 915.697 18.2305 914.584 17.8906C913.365 17.5156 912.24 17.0996 911.209 16.6426C910.189 16.1738 909.299 15.6348 908.537 15.0254C907.775 14.4043 907.184 13.6953 906.762 12.8984C906.34 12.0898 906.129 11.1582 906.129 10.1035C906.129 9.06055 906.346 8.11133 906.779 7.25586C907.225 6.40039 907.852 5.66211 908.66 5.04102C909.48 4.4082 910.447 3.92187 911.561 3.58203C912.674 3.23047 913.904 3.05469 915.252 3.05469C917.15 3.05469 918.785 3.40625 920.156 4.10938C921.539 4.8125 922.6 5.75586 923.338 6.93945C924.088 8.12305 924.463 9.42969 924.463 10.8594H920.086C920.086 10.0156 919.904 9.27148 919.541 8.62695C919.189 7.9707 918.65 7.45508 917.924 7.08008C917.209 6.70508 916.301 6.51758 915.199 6.51758C914.156 6.51758 913.289 6.67578 912.598 6.99219C911.906 7.30859 911.391 7.73633 911.051 8.27539C910.711 8.81445 910.541 9.42383 910.541 10.1035C910.541 10.584 910.652 11.0234 910.875 11.4219C911.098 11.8086 911.438 12.1719 911.895 12.5117C912.352 12.8398 912.926 13.1504 913.617 13.4434C914.309 13.7363 915.123 14.0176 916.061 14.2871C917.479 14.709 918.715 15.1777 919.77 15.6934C920.824 16.1973 921.703 16.7715 922.406 17.416C923.109 18.0605 923.637 18.793 923.988 19.6133C924.34 20.4219 924.516 21.3418 924.516 22.373C924.516 23.4512 924.299 24.4238 923.865 25.291C923.432 26.1465 922.811 26.8789 922.002 27.4883C921.205 28.0859 920.244 28.5488 919.119 28.877C918.006 29.1934 916.764 29.3516 915.393 29.3516C914.162 29.3516 912.949 29.1875 911.754 28.8594C910.57 28.5312 909.492 28.0332 908.52 27.3652C907.547 26.6855 906.773 25.8418 906.199 24.834C905.625 23.8145 905.338 22.625 905.338 21.2656H909.75C909.75 22.0977 909.891 22.8066 910.172 23.3926C910.465 23.9785 910.869 24.459 911.385 24.834C911.9 25.1973 912.498 25.4668 913.178 25.6426C913.869 25.8184 914.607 25.9062 915.393 25.9062C916.424 25.9062 917.285 25.7598 917.977 25.4668C918.68 25.1738 919.207 24.7637 919.559 24.2363C919.91 23.709 920.086 23.0996 920.086 22.4082ZM932.531 9.98047V29H928.277V9.98047H932.531ZM927.996 4.98828C927.996 4.34375 928.207 3.81055 928.629 3.38867C929.062 2.95508 929.66 2.73828 930.422 2.73828C931.172 2.73828 931.764 2.95508 932.197 3.38867C932.631 3.81055 932.848 4.34375 932.848 4.98828C932.848 5.62109 932.631 6.14844 932.197 6.57031C931.764 6.99219 931.172 7.20312 930.422 7.20312C929.66 7.20312 929.062 6.99219 928.629 6.57031C928.207 6.14844 927.996 5.62109 927.996 4.98828ZM945.891 9.98047V13.0742H935.168V9.98047H945.891ZM938.262 5.32227H942.498V23.7441C942.498 24.3301 942.58 24.7812 942.744 25.0977C942.92 25.4023 943.16 25.6074 943.465 25.7129C943.77 25.8184 944.127 25.8711 944.537 25.8711C944.83 25.8711 945.111 25.8535 945.381 25.8184C945.65 25.7832 945.867 25.748 946.031 25.7129L946.049 28.9473C945.697 29.0527 945.287 29.1465 944.818 29.2285C944.361 29.3105 943.834 29.3516 943.236 29.3516C942.264 29.3516 941.402 29.1816 940.652 28.8418C939.902 28.4902 939.316 27.9219 938.895 27.1367C938.473 26.3516 938.262 25.3086 938.262 24.0078V5.32227Z" fill="#124362"/>
</svg>
