<svg version="1.2" xmlns="http://www.w3.org/2000/svg" viewBox="0 0 1140 37" width="1140" height="37">
	<title>Happenings-svg</title>
	<style>
		.s0 { fill: #f5f5f5 } 
		.s1 { fill: #124362 } 
	</style>
	<path id="Layer" fill-rule="evenodd" class="s0" d="m84.1 25.5v3.5h-16v-25.6h4.4v22.1zm2.2-5.8v-0.4q0-2.1 0.6-3.8 0.6-1.8 1.7-3.1 1.1-1.3 2.8-2 1.6-0.8 3.7-0.8 2.1 0 3.7 0.8 1.7 0.7 2.8 2 1.2 1.3 1.8 3.1 0.6 1.7 0.6 3.8v0.4q0 2.1-0.6 3.8-0.6 1.8-1.8 3.1-1.1 1.3-2.8 2-1.6 0.8-3.7 0.8-2.1 0-3.7-0.8-1.6-0.7-2.8-2-1.1-1.3-1.7-3.1-0.6-1.7-0.6-3.8zm4.2-0.4v0.4q0 1.3 0.3 2.4 0.2 1.2 0.8 2 0.6 0.9 1.4 1.4 0.9 0.5 2.1 0.5 1.2 0 2.1-0.5 0.9-0.5 1.4-1.4 0.6-0.8 0.8-2 0.3-1.1 0.3-2.4v-0.4q0-1.3-0.3-2.4-0.2-1.1-0.8-2-0.6-0.9-1.4-1.4-0.9-0.5-2.1-0.5-1.2 0-2.1 0.5-0.8 0.5-1.4 1.4-0.6 0.9-0.8 2-0.3 1.1-0.3 2.4zm21.3 9.7h-4.3v-19h4.1l0.1 2.2q0 0 0.1-0.1 0.7-1.2 1.8-1.8 1.1-0.7 2.5-0.7 0.4 0 0.8 0.1 0.5 0.1 0.7 0.2v3.9q-0.4-0.1-0.9-0.1-0.4 0-0.9 0-1.1 0-1.9 0.3-0.8 0.3-1.4 0.8-0.4 0.5-0.7 1.2zm16.5 0.4q-2.1 0-3.8-0.7-1.7-0.7-2.9-2-1.2-1.2-1.8-2.9-0.7-1.7-0.7-3.7v-0.7q0-2.2 0.7-4 0.6-1.8 1.8-3.1 1.2-1.3 2.7-2 1.6-0.7 3.5-0.7 2 0 3.5 0.7 1.6 0.7 2.6 1.9 1 1.3 1.5 3 0.5 1.7 0.5 3.7v1.9h-12.5q0.1 0.9 0.3 1.7 0.4 1 1 1.8 0.7 0.8 1.7 1.3 0.9 0.4 2.1 0.4 1.6 0 2.7-0.6 1.2-0.6 2.1-1.8l2.3 2.2q-0.7 0.9-1.6 1.7-1 0.8-2.5 1.3-1.4 0.6-3.2 0.6zm-4.9-8.6q0-0.3 0-0.7v-0.7q0-0.9 0.1-1.7h-2.3v3.1zm8.3-3.1v-0.3q-0.1-1.2-0.5-2.2-0.4-1-1.2-1.6-0.9-0.6-2.3-0.6-1 0-1.9 0.5-0.8 0.4-1.3 1.2-0.6 0.9-0.8 2.1-0.2 0.4-0.2 0.9zm11.7 11.3h-4.2v-19h4l0.1 2.1q0.9-1.1 2.3-1.8 1.4-0.7 3.3-0.7 1.3 0 2.3 0.4 1.1 0.4 1.9 1.2 0.6 0.6 1 1.4 0.1-0.2 0.3-0.5 1-1.1 2.4-1.8 1.4-0.7 3.1-0.7 1.5 0 2.6 0.4 1.2 0.4 2 1.3 0.8 0.8 1.2 2.2 0.5 1.3 0.5 3.2v12.3h-4.3v-12.3q0-1.5-0.4-2.3-0.4-0.7-1.2-1-0.7-0.4-1.8-0.4-1 0-1.7 0.4-0.8 0.4-1.3 1-0.5 0.6-0.7 1.4 0 0.3 0 0.5v12.7h-4.3v-12.3q0-1.4-0.4-2.2-0.4-0.8-1.2-1.1-0.7-0.4-1.8-0.4-1.2 0-2 0.5-0.8 0.5-1.4 1.2-0.1 0.3-0.3 0.6z"/>
	<path id="Layer" fill-rule="evenodd" class="s0" d="m383.1 3.4v25.6h-4.4v-25.6zm9.3 32.9h-4.3v-26.3h3.9l0.2 2q0.9-1.1 2.1-1.7 1.3-0.7 3-0.7 1.8 0 3.2 0.7 1.4 0.7 2.4 2 0.9 1.3 1.4 3.1 0.5 1.7 0.5 3.9v0.4q0 2.1-0.5 3.8-0.5 1.8-1.5 3.1-0.9 1.3-2.3 2-1.3 0.8-3.1 0.8-1.8 0-3.1-0.7-1.1-0.5-1.9-1.5zm8.1-16.6v-0.4q0-1.3-0.2-2.4-0.3-1.2-0.8-2-0.5-0.9-1.3-1.4-0.9-0.4-2-0.4-1.1 0-1.9 0.3-0.8 0.4-1.4 1.1-0.5 0.6-0.8 1.5-0.3 0.9-0.5 2v3.4q0.3 1.2 0.8 2.3 0.5 1 1.4 1.7 1 0.6 2.4 0.6 1.2 0 2-0.5 0.8-0.5 1.3-1.4 0.5-0.8 0.8-2 0.2-1.1 0.2-2.4zm18.5 4.2q0-0.7-0.3-1.2-0.3-0.5-1.2-0.9-0.9-0.4-2.6-0.8-1.5-0.3-2.8-0.8-1.2-0.5-2.1-1.1-0.9-0.7-1.4-1.6-0.5-0.9-0.5-2.1 0-1.2 0.5-2.2 0.5-1.1 1.5-1.8 0.9-0.8 2.3-1.3 1.3-0.5 3-0.5 2.4 0 4.1 0.9 1.8 0.7 2.7 2.1 0.9 1.4 0.9 3.1h-4.3q0-0.8-0.3-1.4-0.4-0.7-1.2-1.1-0.7-0.4-1.9-0.4-1.1 0-1.8 0.3-0.7 0.4-1 0.9-0.4 0.6-0.4 1.2 0 0.5 0.2 0.9 0.2 0.3 0.6 0.6 0.5 0.3 1.2 0.6 0.8 0.3 2 0.5 2.2 0.5 3.7 1.2 1.6 0.7 2.4 1.8 0.9 1.1 0.9 2.8 0 1.3-0.6 2.4-0.5 1-1.5 1.8-1 0.7-2.5 1.1-1.4 0.5-3.1 0.5-2.6 0-4.4-0.9-1.8-1-2.7-2.4-0.9-1.5-0.9-3h4.1q0 1.1 0.6 1.8 0.6 0.7 1.5 1 0.9 0.3 1.8 0.3 1.2 0 2-0.3 0.7-0.3 1.1-0.8 0.4-0.5 0.4-1.2zm19.3-13.9h4.3v19h-4l-0.1-1.9q-0.9 1-2.1 1.6-1.4 0.7-3.3 0.7-1.4 0-2.5-0.4-1.2-0.4-2.1-1.3-0.8-0.8-1.2-2.2-0.5-1.3-0.5-3.2v-12.3h4.2v12.3q0 1.1 0.3 1.8 0.2 0.6 0.7 1.1 0.4 0.4 0.9 0.6 0.6 0.1 1.2 0.1 1.8 0 2.9-0.7 0.9-0.6 1.3-1.6zm12.9 19.1h-4.3v-19.1h4l0.2 2.2q0.9-1.2 2.2-1.8 1.5-0.7 3.3-0.7 1.3 0 2.4 0.4 1.1 0.4 1.9 1.2 0.6 0.5 0.9 1.4 0.2-0.3 0.4-0.5 0.9-1.2 2.3-1.8 1.4-0.7 3.2-0.7 1.5 0 2.6 0.4 1.2 0.4 2 1.2 0.8 0.9 1.2 2.2 0.4 1.4 0.4 3.3v12.3h-4.2v-12.4q0-1.4-0.4-2.2-0.4-0.8-1.2-1.1-0.8-0.3-1.8-0.3-1 0-1.8 0.4-0.7 0.3-1.2 1-0.5 0.6-0.8 1.4 0 0.2 0 0.5v12.7h-4.2v-12.3q0-1.4-0.4-2.2-0.4-0.8-1.2-1.1-0.7-0.4-1.8-0.4-1.2 0-2 0.5-0.9 0.4-1.4 1.2-0.2 0.3-0.3 0.6z"/>
	<path id="Layer" fill-rule="evenodd" class="s1" d="m693.8 29h-7.4v-25.6h7.6q2.5 0 4.7 0.9 2.1 0.8 3.6 2.4 1.5 1.6 2.4 3.8 0.8 2.3 0.8 5v1.4q0 2.7-0.8 5-0.9 2.2-2.4 3.8-1.6 1.6-3.7 2.5-2.1 0.8-4.8 0.8zm0-3.5q2.4 0 4-1 1.6-1.1 2.4-3 0.9-1.9 0.9-4.6v-1.4q0-2.1-0.5-3.7-0.5-1.6-1.4-2.7-0.9-1.1-2.2-1.6-1.3-0.6-3-0.6h-3.2v18.6zm14.9-5.8v-0.4q0-2.1 0.6-3.8 0.6-1.8 1.7-3.1 1.1-1.3 2.8-2 1.6-0.8 3.7-0.8 2.1 0 3.7 0.8 1.7 0.7 2.8 2 1.2 1.3 1.8 3.1 0.6 1.7 0.6 3.8v0.4q0 2.1-0.6 3.8-0.6 1.8-1.8 3.1-1.1 1.3-2.8 2-1.6 0.8-3.7 0.8-2.1 0-3.7-0.8-1.7-0.7-2.8-2-1.1-1.3-1.7-3.1-0.6-1.7-0.6-3.8zm4.2-0.4v0.4q0 1.3 0.3 2.4 0.2 1.2 0.8 2 0.6 0.9 1.4 1.4 0.9 0.5 2.1 0.5 1.2 0 2.1-0.5 0.8-0.5 1.4-1.4 0.6-0.8 0.8-2 0.3-1.1 0.3-2.4v-0.4q0-1.3-0.3-2.4-0.2-1.1-0.8-2-0.6-0.9-1.4-1.4-0.9-0.5-2.1-0.5-1.2 0-2.1 0.5-0.8 0.5-1.4 1.4-0.6 0.9-0.8 2-0.3 1.1-0.3 2.4zm21.5-17.3v27h-4.2v-27zm3.8 17.7v-0.4q0-2.1 0.6-3.8 0.6-1.8 1.7-3.1 1.2-1.3 2.8-2 1.7-0.8 3.7-0.8 2.1 0 3.8 0.8 1.6 0.7 2.8 2 1.1 1.3 1.7 3.1 0.6 1.7 0.6 3.8v0.4q0 2.1-0.6 3.8-0.6 1.8-1.7 3.1-1.2 1.3-2.8 2-1.6 0.8-3.7 0.8-2.1 0-3.8-0.8-1.6-0.7-2.7-2-1.2-1.3-1.8-3.1-0.6-1.7-0.6-3.8zm4.3-0.4v0.4q0 1.3 0.2 2.4 0.3 1.2 0.8 2 0.6 0.9 1.5 1.4 0.9 0.5 2.1 0.5 1.2 0 2-0.5 0.9-0.5 1.5-1.4 0.5-0.8 0.8-2 0.3-1.1 0.3-2.4v-0.4q0-1.3-0.3-2.4-0.3-1.1-0.9-2-0.5-0.9-1.4-1.4-0.9-0.5-2.1-0.5-1.2 0-2 0.5-0.9 0.5-1.5 1.4-0.5 0.9-0.8 2-0.2 1.1-0.2 2.4zm21.2 9.7h-4.2v-19h4l0.1 2.2q0.1 0 0.1-0.1 0.7-1.2 1.8-1.8 1.1-0.7 2.5-0.7 0.4 0 0.8 0.1 0.5 0.1 0.7 0.2v3.9q-0.4-0.1-0.9-0.1-0.4 0-0.8 0-1.1 0-2 0.3-0.8 0.3-1.3 0.8-0.5 0.5-0.8 1.2z"/>
	<path id="Layer" class="s1" d="m1027.6 26.4q0-0.8-0.3-1.4-0.2-0.6-0.8-1.1-0.6-0.5-1.7-1-1-0.5-2.7-1-1.8-0.6-3.4-1.3-1.5-0.7-2.7-1.6-1.1-0.9-1.7-2.1-0.7-1.2-0.7-2.8 0-1.6 0.7-2.8 0.6-1.3 1.9-2.3 1.2-0.9 2.9-1.4 1.6-0.5 3.7-0.5 2.8 0 4.9 1 2 1.1 3.1 2.8 1.2 1.8 1.2 4h-4.4q0-1.3-0.6-2.3-0.5-1-1.6-1.5-1-0.6-2.7-0.6-1.6 0-2.6 0.5-1 0.5-1.5 1.3-0.6 0.8-0.6 1.8 0 0.7 0.4 1.3 0.3 0.6 1 1.1 0.7 0.5 1.7 0.9 1.1 0.5 2.5 0.9 2.1 0.6 3.7 1.4 1.5 0.7 2.6 1.7 1.1 1 1.6 2.2 0.5 1.2 0.5 2.8 0 1.6-0.6 2.9-0.7 1.3-1.9 2.2-1.2 0.9-2.9 1.4-1.7 0.5-3.7 0.5-1.9 0-3.6-0.5-1.8-0.5-3.3-1.5-1.4-1.1-2.3-2.6-0.9-1.5-0.9-3.5h4.5q0 1.2 0.4 2.1 0.4 0.9 1.2 1.4 0.8 0.6 1.8 0.8 1 0.3 2.2 0.3 1.5 0 2.6-0.4 1-0.5 1.6-1.3 0.5-0.8 0.5-1.8zm12.4-12.4v19h-4.2v-19zm-4.5-5q0-1 0.6-1.6 0.6-0.7 1.8-0.7 1.1 0 1.8 0.7 0.6 0.6 0.6 1.6 0 0.9-0.6 1.6-0.7 0.6-1.8 0.6-1.2 0-1.8-0.6-0.6-0.7-0.6-1.6zm17.8 5v3.1h-10.7v-3.1zm-7.6-4.7h4.2v18.4q0 0.9 0.3 1.4 0.2 0.5 0.7 0.6 0.5 0.2 1.1 0.2 0.4 0 0.8-0.1 0.4 0 0.7-0.1v3.2q-0.5 0.2-1.3 0.3-0.6 0.2-1.5 0.2-1.5 0-2.6-0.6-1.1-0.5-1.8-1.7-0.6-1.1-0.6-3.1z"/>
</svg>