<svg width="1139" height="37" viewBox="0 0 1139 37" fill="none" xmlns="http://www.w3.org/2000/svg">
<path d="M72.1205 25.502V29H59.2709V25.502H72.1205ZM60.5014 3.40625V29H56.0892V3.40625H60.5014ZM74.3002 19.7012V19.2969C74.3002 17.9258 74.4994 16.6543 74.8978 15.4824C75.2963 14.2988 75.8705 13.2734 76.6205 12.4062C77.3822 11.5273 78.308 10.8477 79.3978 10.3672C80.4994 9.875 81.7416 9.62891 83.1244 9.62891C84.5189 9.62891 85.7611 9.875 86.851 10.3672C87.9525 10.8477 88.8842 11.5273 89.6459 12.4062C90.4076 13.2734 90.9877 14.2988 91.3861 15.4824C91.7846 16.6543 91.9838 17.9258 91.9838 19.2969V19.7012C91.9838 21.0723 91.7846 22.3438 91.3861 23.5156C90.9877 24.6875 90.4076 25.7129 89.6459 26.5918C88.8842 27.459 87.9584 28.1387 86.8685 28.6309C85.7787 29.1113 84.5424 29.3516 83.1596 29.3516C81.765 29.3516 80.517 29.1113 79.4154 28.6309C78.3256 28.1387 77.3998 27.459 76.6381 26.5918C75.8764 25.7129 75.2963 24.6875 74.8978 23.5156C74.4994 22.3438 74.3002 21.0723 74.3002 19.7012ZM78.5365 19.2969V19.7012C78.5365 20.5566 78.6244 21.3652 78.8002 22.127C78.976 22.8887 79.2514 23.5566 79.6264 24.1309C80.0014 24.7051 80.4818 25.1562 81.0678 25.4844C81.6537 25.8125 82.351 25.9766 83.1596 25.9766C83.9447 25.9766 84.6244 25.8125 85.1986 25.4844C85.7846 25.1562 86.265 24.7051 86.64 24.1309C87.015 23.5566 87.2904 22.8887 87.4662 22.127C87.6537 21.3652 87.7475 20.5566 87.7475 19.7012V19.2969C87.7475 18.4531 87.6537 17.6562 87.4662 16.9062C87.2904 16.1445 87.0092 15.4707 86.6225 14.8848C86.2475 14.2988 85.767 13.8418 85.181 13.5137C84.6068 13.1738 83.9213 13.0039 83.1244 13.0039C82.3275 13.0039 81.6361 13.1738 81.0502 13.5137C80.476 13.8418 80.0014 14.2988 79.6264 14.8848C79.2514 15.4707 78.976 16.1445 78.8002 16.9062C78.6244 17.6562 78.5365 18.4531 78.5365 19.2969ZM99.7885 13.6016V29H95.5521V9.98047H99.5951L99.7885 13.6016ZM105.607 9.85742L105.572 13.7949C105.314 13.748 105.033 13.7129 104.728 13.6895C104.435 13.666 104.142 13.6543 103.849 13.6543C103.122 13.6543 102.484 13.7598 101.933 13.9707C101.382 14.1699 100.919 14.4629 100.544 14.8496C100.181 15.2246 99.8998 15.6816 99.7006 16.2207C99.5014 16.7598 99.3842 17.3633 99.349 18.0312L98.3822 18.1016C98.3822 16.9062 98.4994 15.7988 98.7338 14.7793C98.9682 13.7598 99.3197 12.8633 99.7885 12.0898C100.269 11.3164 100.867 10.7129 101.581 10.2793C102.308 9.8457 103.146 9.62891 104.095 9.62891C104.353 9.62891 104.628 9.65234 104.921 9.69922C105.226 9.74609 105.454 9.79883 105.607 9.85742ZM116.294 29.3516C114.888 29.3516 113.617 29.123 112.48 28.666C111.355 28.1973 110.394 27.5469 109.597 26.7148C108.812 25.8828 108.208 24.9043 107.787 23.7793C107.365 22.6543 107.154 21.4414 107.154 20.1406V19.4375C107.154 17.9492 107.37 16.6016 107.804 15.3945C108.238 14.1875 108.841 13.1562 109.615 12.3008C110.388 11.4336 111.302 10.7715 112.357 10.3145C113.412 9.85742 114.554 9.62891 115.785 9.62891C117.144 9.62891 118.333 9.85742 119.353 10.3145C120.372 10.7715 121.216 11.416 121.884 12.248C122.564 13.0684 123.068 14.0469 123.396 15.1836C123.736 16.3203 123.906 17.5742 123.906 18.9453V20.7559H109.21V17.7148H119.722V17.3809C119.699 16.6191 119.546 15.9043 119.265 15.2363C118.995 14.5684 118.579 14.0293 118.017 13.6191C117.454 13.209 116.704 13.0039 115.767 13.0039C115.064 13.0039 114.437 13.1562 113.886 13.4609C113.347 13.7539 112.896 14.1816 112.533 14.7441C112.169 15.3066 111.888 15.9863 111.689 16.7832C111.501 17.5684 111.408 18.4531 111.408 19.4375V20.1406C111.408 20.9727 111.519 21.7461 111.742 22.4609C111.976 23.1641 112.316 23.7793 112.761 24.3066C113.206 24.834 113.745 25.25 114.378 25.5547C115.011 25.8477 115.732 25.9941 116.54 25.9941C117.56 25.9941 118.468 25.7891 119.265 25.3789C120.062 24.9688 120.753 24.3887 121.339 23.6387L123.572 25.8008C123.162 26.3984 122.628 26.9727 121.972 27.5234C121.316 28.0625 120.513 28.502 119.564 28.8418C118.626 29.1816 117.537 29.3516 116.294 29.3516ZM131.447 13.8477V29H127.21V9.98047H131.201L131.447 13.8477ZM130.761 18.7871L129.32 18.7695C129.32 17.457 129.484 16.2441 129.812 15.1309C130.14 14.0176 130.62 13.0508 131.253 12.2305C131.886 11.3984 132.671 10.7598 133.609 10.3145C134.558 9.85742 135.654 9.62891 136.896 9.62891C137.763 9.62891 138.554 9.75781 139.269 10.0156C139.995 10.2617 140.622 10.6543 141.15 11.1934C141.689 11.7324 142.099 12.4238 142.38 13.2676C142.673 14.1113 142.82 15.1309 142.82 16.3262V29H138.583V16.6953C138.583 15.7695 138.443 15.043 138.162 14.5156C137.892 13.9883 137.499 13.6133 136.984 13.3906C136.48 13.1562 135.876 13.0391 135.173 13.0391C134.376 13.0391 133.697 13.1914 133.134 13.4961C132.583 13.8008 132.132 14.2168 131.781 14.7441C131.429 15.2715 131.171 15.8809 131.007 16.5723C130.843 17.2637 130.761 18.002 130.761 18.7871ZM142.556 17.6621L140.57 18.1016C140.57 16.9531 140.728 15.8691 141.044 14.8496C141.372 13.8184 141.847 12.916 142.468 12.1426C143.101 11.3574 143.88 10.7422 144.806 10.2969C145.732 9.85156 146.792 9.62891 147.988 9.62891C148.96 9.62891 149.828 9.76367 150.589 10.0332C151.363 10.291 152.019 10.7012 152.558 11.2637C153.097 11.8262 153.507 12.5586 153.788 13.4609C154.07 14.3516 154.21 15.4297 154.21 16.6953V29H149.956V16.6777C149.956 15.7168 149.816 14.9727 149.535 14.4453C149.265 13.918 148.878 13.5547 148.374 13.3555C147.87 13.1445 147.267 13.0391 146.564 13.0391C145.908 13.0391 145.328 13.1621 144.824 13.4082C144.331 13.6426 143.915 13.9766 143.576 14.4102C143.236 14.832 142.978 15.3184 142.802 15.8691C142.638 16.4199 142.556 17.0176 142.556 17.6621Z" fill="#F5F5F5"/>
<path d="M372.066 3.40625V29H367.654V3.40625H372.066ZM381.382 13.6367V36.3125H377.146V9.98047H381.048L381.382 13.6367ZM393.775 19.3145V19.6836C393.775 21.0664 393.611 22.3496 393.283 23.5332C392.966 24.7051 392.492 25.7305 391.859 26.6094C391.238 27.4766 390.47 28.1504 389.556 28.6309C388.642 29.1113 387.587 29.3516 386.392 29.3516C385.208 29.3516 384.171 29.1348 383.281 28.7012C382.402 28.2559 381.658 27.6289 381.048 26.8203C380.439 26.0117 379.947 25.0625 379.572 23.9727C379.208 22.8711 378.951 21.6641 378.798 20.3516V18.9277C378.951 17.5332 379.208 16.2676 379.572 15.1309C379.947 13.9941 380.439 13.0156 381.048 12.1953C381.658 11.375 382.402 10.7422 383.281 10.2969C384.16 9.85156 385.185 9.62891 386.357 9.62891C387.552 9.62891 388.613 9.86328 389.538 10.332C390.464 10.7891 391.244 11.4453 391.876 12.3008C392.509 13.1445 392.984 14.1641 393.3 15.3594C393.617 16.543 393.775 17.8613 393.775 19.3145ZM389.538 19.6836V19.3145C389.538 18.4355 389.456 17.6211 389.292 16.8711C389.128 16.1094 388.87 15.4414 388.519 14.8672C388.167 14.293 387.716 13.8477 387.165 13.5312C386.626 13.2031 385.976 13.0391 385.214 13.0391C384.464 13.0391 383.82 13.168 383.281 13.4258C382.742 13.6719 382.29 14.0176 381.927 14.4629C381.564 14.9082 381.283 15.4297 381.083 16.0273C380.884 16.6133 380.744 17.252 380.662 17.9434V21.3535C380.802 22.1973 381.042 22.9707 381.382 23.6738C381.722 24.377 382.203 24.9395 382.824 25.3613C383.456 25.7715 384.265 25.9766 385.249 25.9766C386.011 25.9766 386.662 25.8125 387.201 25.4844C387.74 25.1562 388.179 24.7051 388.519 24.1309C388.87 23.5449 389.128 22.8711 389.292 22.1094C389.456 21.3477 389.538 20.5391 389.538 19.6836ZM408.048 23.8496C408.048 23.4277 407.943 23.0469 407.732 22.707C407.521 22.3555 407.117 22.0391 406.519 21.7578C405.933 21.4766 405.066 21.2188 403.917 20.9844C402.91 20.7617 401.984 20.498 401.14 20.1934C400.308 19.877 399.593 19.4961 398.995 19.0508C398.398 18.6055 397.935 18.0781 397.607 17.4688C397.279 16.8594 397.115 16.1562 397.115 15.3594C397.115 14.5859 397.285 13.8535 397.624 13.1621C397.964 12.4707 398.451 11.8613 399.083 11.334C399.716 10.8066 400.484 10.3906 401.386 10.0859C402.3 9.78125 403.32 9.62891 404.445 9.62891C406.038 9.62891 407.404 9.89844 408.54 10.4375C409.689 10.9648 410.568 11.6855 411.177 12.5996C411.787 13.502 412.091 14.5215 412.091 15.6582H407.855C407.855 15.1543 407.726 14.6855 407.468 14.252C407.222 13.8066 406.847 13.4492 406.343 13.1797C405.839 12.8984 405.206 12.7578 404.445 12.7578C403.718 12.7578 403.115 12.875 402.634 13.1094C402.165 13.332 401.814 13.625 401.579 13.9883C401.357 14.3516 401.245 14.75 401.245 15.1836C401.245 15.5 401.304 15.7871 401.421 16.0449C401.55 16.291 401.761 16.5195 402.054 16.7305C402.347 16.9297 402.745 17.1172 403.249 17.293C403.765 17.4688 404.41 17.6387 405.183 17.8027C406.636 18.1074 407.884 18.5 408.927 18.9805C409.982 19.4492 410.79 20.0586 411.353 20.8086C411.915 21.5469 412.197 22.4844 412.197 23.6211C412.197 24.4648 412.015 25.2383 411.652 25.9414C411.3 26.6328 410.785 27.2363 410.105 27.752C409.425 28.2559 408.611 28.6484 407.662 28.9297C406.724 29.2109 405.669 29.3516 404.497 29.3516C402.775 29.3516 401.316 29.0469 400.12 28.4375C398.925 27.8164 398.017 27.0254 397.396 26.0645C396.787 25.0918 396.482 24.084 396.482 23.041H400.578C400.624 23.8262 400.841 24.4531 401.228 24.9219C401.626 25.3789 402.119 25.7129 402.704 25.9238C403.302 26.123 403.917 26.2227 404.55 26.2227C405.312 26.2227 405.951 26.123 406.466 25.9238C406.982 25.7129 407.374 25.4316 407.644 25.0801C407.913 24.7168 408.048 24.3066 408.048 23.8496ZM427.349 24.5176V9.98047H431.603V29H427.595L427.349 24.5176ZM427.947 20.5625L429.37 20.5273C429.37 21.8047 429.23 22.9824 428.949 24.0605C428.667 25.127 428.234 26.0586 427.648 26.8555C427.062 27.6406 426.312 28.2559 425.398 28.7012C424.484 29.1348 423.388 29.3516 422.111 29.3516C421.185 29.3516 420.335 29.2168 419.562 28.9473C418.788 28.6777 418.12 28.2617 417.558 27.6992C417.007 27.1367 416.579 26.4043 416.275 25.502C415.97 24.5996 415.818 23.5215 415.818 22.2676V9.98047H420.054V22.3027C420.054 22.9941 420.136 23.5742 420.3 24.043C420.464 24.5 420.687 24.8691 420.968 25.1504C421.249 25.4316 421.578 25.6309 421.953 25.748C422.328 25.8652 422.726 25.9238 423.148 25.9238C424.355 25.9238 425.304 25.6895 425.995 25.2207C426.699 24.7402 427.197 24.0957 427.49 23.2871C427.794 22.4785 427.947 21.5703 427.947 20.5625ZM440.181 13.8477V29H435.945V9.98047H439.935L440.181 13.8477ZM439.495 18.7871L438.054 18.7695C438.054 17.457 438.218 16.2441 438.546 15.1309C438.874 14.0176 439.355 13.0508 439.988 12.2305C440.62 11.3984 441.406 10.7598 442.343 10.3145C443.292 9.85742 444.388 9.62891 445.63 9.62891C446.497 9.62891 447.288 9.75781 448.003 10.0156C448.73 10.2617 449.357 10.6543 449.884 11.1934C450.423 11.7324 450.833 12.4238 451.115 13.2676C451.408 14.1113 451.554 15.1309 451.554 16.3262V29H447.318V16.6953C447.318 15.7695 447.177 15.043 446.896 14.5156C446.626 13.9883 446.234 13.6133 445.718 13.3906C445.214 13.1562 444.611 13.0391 443.908 13.0391C443.111 13.0391 442.431 13.1914 441.869 13.4961C441.318 13.8008 440.867 14.2168 440.515 14.7441C440.163 15.2715 439.906 15.8809 439.742 16.5723C439.578 17.2637 439.495 18.002 439.495 18.7871ZM451.29 17.6621L449.304 18.1016C449.304 16.9531 449.462 15.8691 449.779 14.8496C450.107 13.8184 450.581 12.916 451.203 12.1426C451.835 11.3574 452.615 10.7422 453.54 10.2969C454.466 9.85156 455.527 9.62891 456.722 9.62891C457.695 9.62891 458.562 9.76367 459.324 10.0332C460.097 10.291 460.753 10.7012 461.292 11.2637C461.831 11.8262 462.242 12.5586 462.523 13.4609C462.804 14.3516 462.945 15.4297 462.945 16.6953V29H458.691V16.6777C458.691 15.7168 458.55 14.9727 458.269 14.4453C457.999 13.918 457.613 13.5547 457.109 13.3555C456.605 13.1445 456.001 13.0391 455.298 13.0391C454.642 13.0391 454.062 13.1621 453.558 13.4082C453.066 13.6426 452.65 13.9766 452.31 14.4102C451.97 14.832 451.712 15.3184 451.537 15.8691C451.372 16.4199 451.29 17.0176 451.29 17.6621Z" fill="#F5F5F5"/>
<path d="M689.839 29H684.372L684.408 25.502H689.839C691.421 25.502 692.745 25.1562 693.812 24.4648C694.89 23.7734 695.699 22.7832 696.238 21.4941C696.788 20.2051 697.064 18.6699 697.064 16.8887V15.5C697.064 14.1172 696.906 12.8926 696.589 11.8262C696.285 10.7598 695.828 9.86328 695.218 9.13672C694.62 8.41016 693.882 7.85937 693.003 7.48438C692.136 7.10938 691.134 6.92188 689.997 6.92188H684.267V3.40625H689.997C691.697 3.40625 693.249 3.69336 694.656 4.26758C696.062 4.83008 697.275 5.64453 698.294 6.71094C699.326 7.77734 700.117 9.05469 700.667 10.543C701.218 12.0312 701.494 13.6953 701.494 15.5352V16.8887C701.494 18.7285 701.218 20.3926 700.667 21.8809C700.117 23.3691 699.326 24.6465 698.294 25.7129C697.263 26.7676 696.033 27.582 694.603 28.1562C693.185 28.7188 691.597 29 689.839 29ZM686.816 3.40625V29H682.404V3.40625H686.816ZM704.693 19.7012V19.2969C704.693 17.9258 704.892 16.6543 705.29 15.4824C705.689 14.2988 706.263 13.2734 707.013 12.4062C707.775 11.5273 708.701 10.8477 709.79 10.3672C710.892 9.875 712.134 9.62891 713.517 9.62891C714.912 9.62891 716.154 9.875 717.244 10.3672C718.345 10.8477 719.277 11.5273 720.038 12.4062C720.8 13.2734 721.38 14.2988 721.779 15.4824C722.177 16.6543 722.376 17.9258 722.376 19.2969V19.7012C722.376 21.0723 722.177 22.3438 721.779 23.5156C721.38 24.6875 720.8 25.7129 720.038 26.5918C719.277 27.459 718.351 28.1387 717.261 28.6309C716.171 29.1113 714.935 29.3516 713.552 29.3516C712.158 29.3516 710.91 29.1113 709.808 28.6309C708.718 28.1387 707.792 27.459 707.031 26.5918C706.269 25.7129 705.689 24.6875 705.29 23.5156C704.892 22.3438 704.693 21.0723 704.693 19.7012ZM708.929 19.2969V19.7012C708.929 20.5566 709.017 21.3652 709.193 22.127C709.369 22.8887 709.644 23.5566 710.019 24.1309C710.394 24.7051 710.874 25.1562 711.46 25.4844C712.046 25.8125 712.744 25.9766 713.552 25.9766C714.337 25.9766 715.017 25.8125 715.591 25.4844C716.177 25.1562 716.658 24.7051 717.033 24.1309C717.408 23.5566 717.683 22.8887 717.859 22.127C718.046 21.3652 718.14 20.5566 718.14 19.7012V19.2969C718.14 18.4531 718.046 17.6562 717.859 16.9062C717.683 16.1445 717.402 15.4707 717.015 14.8848C716.64 14.2988 716.16 13.8418 715.574 13.5137C714.999 13.1738 714.314 13.0039 713.517 13.0039C712.72 13.0039 712.029 13.1738 711.443 13.5137C710.869 13.8418 710.394 14.2988 710.019 14.8848C709.644 15.4707 709.369 16.1445 709.193 16.9062C709.017 17.6562 708.929 18.4531 708.929 19.2969ZM730.462 2V29H726.208V2H730.462ZM734.294 19.7012V19.2969C734.294 17.9258 734.494 16.6543 734.892 15.4824C735.29 14.2988 735.865 13.2734 736.615 12.4062C737.376 11.5273 738.302 10.8477 739.392 10.3672C740.494 9.875 741.736 9.62891 743.119 9.62891C744.513 9.62891 745.755 9.875 746.845 10.3672C747.947 10.8477 748.878 11.5273 749.64 12.4062C750.402 13.2734 750.982 14.2988 751.38 15.4824C751.779 16.6543 751.978 17.9258 751.978 19.2969V19.7012C751.978 21.0723 751.779 22.3438 751.38 23.5156C750.982 24.6875 750.402 25.7129 749.64 26.5918C748.878 27.459 747.953 28.1387 746.863 28.6309C745.773 29.1113 744.537 29.3516 743.154 29.3516C741.759 29.3516 740.511 29.1113 739.41 28.6309C738.32 28.1387 737.394 27.459 736.632 26.5918C735.87 25.7129 735.29 24.6875 734.892 23.5156C734.494 22.3438 734.294 21.0723 734.294 19.7012ZM738.531 19.2969V19.7012C738.531 20.5566 738.619 21.3652 738.794 22.127C738.97 22.8887 739.245 23.5566 739.62 24.1309C739.995 24.7051 740.476 25.1562 741.062 25.4844C741.648 25.8125 742.345 25.9766 743.154 25.9766C743.939 25.9766 744.619 25.8125 745.193 25.4844C745.779 25.1562 746.259 24.7051 746.634 24.1309C747.009 23.5566 747.285 22.8887 747.46 22.127C747.648 21.3652 747.742 20.5566 747.742 19.7012V19.2969C747.742 18.4531 747.648 17.6562 747.46 16.9062C747.285 16.1445 747.003 15.4707 746.617 14.8848C746.242 14.2988 745.761 13.8418 745.175 13.5137C744.601 13.1738 743.915 13.0039 743.119 13.0039C742.322 13.0039 741.63 13.1738 741.044 13.5137C740.47 13.8418 739.995 14.2988 739.62 14.8848C739.245 15.4707 738.97 16.1445 738.794 16.9062C738.619 17.6562 738.531 18.4531 738.531 19.2969ZM759.783 13.6016V29H755.546V9.98047H759.589L759.783 13.6016ZM765.601 9.85742L765.566 13.7949C765.308 13.748 765.027 13.7129 764.722 13.6895C764.429 13.666 764.136 13.6543 763.843 13.6543C763.117 13.6543 762.478 13.7598 761.927 13.9707C761.376 14.1699 760.913 14.4629 760.538 14.8496C760.175 15.2246 759.894 15.6816 759.695 16.2207C759.495 16.7598 759.378 17.3633 759.343 18.0312L758.376 18.1016C758.376 16.9062 758.494 15.7988 758.728 14.7793C758.962 13.7598 759.314 12.8633 759.783 12.0898C760.263 11.3164 760.861 10.7129 761.576 10.2793C762.302 9.8457 763.14 9.62891 764.089 9.62891C764.347 9.62891 764.622 9.65234 764.915 9.69922C765.22 9.74609 765.449 9.79883 765.601 9.85742Z" fill="#124362"/>
<path d="M1028.52 26.4082C1028.52 25.8809 1028.44 25.4121 1028.28 25.002C1028.13 24.5918 1027.85 24.2168 1027.45 23.877C1027.05 23.5371 1026.49 23.209 1025.77 22.8926C1025.05 22.5645 1024.14 22.2305 1023.02 21.8906C1021.8 21.5156 1020.68 21.0996 1019.65 20.6426C1018.63 20.1738 1017.74 19.6348 1016.98 19.0254C1016.21 18.4043 1015.62 17.6953 1015.2 16.8984C1014.78 16.0898 1014.57 15.1582 1014.57 14.1035C1014.57 13.0605 1014.78 12.1113 1015.22 11.2559C1015.66 10.4004 1016.29 9.66211 1017.1 9.04102C1017.92 8.4082 1018.89 7.92187 1020 7.58203C1021.11 7.23047 1022.34 7.05469 1023.69 7.05469C1025.59 7.05469 1027.22 7.40625 1028.6 8.10938C1029.98 8.8125 1031.04 9.75586 1031.78 10.9395C1032.53 12.123 1032.9 13.4297 1032.9 14.8594H1028.52C1028.52 14.0156 1028.34 13.2715 1027.98 12.627C1027.63 11.9707 1027.09 11.4551 1026.36 11.0801C1025.65 10.7051 1024.74 10.5176 1023.64 10.5176C1022.6 10.5176 1021.73 10.6758 1021.04 10.9922C1020.35 11.3086 1019.83 11.7363 1019.49 12.2754C1019.15 12.8145 1018.98 13.4238 1018.98 14.1035C1018.98 14.584 1019.09 15.0234 1019.31 15.4219C1019.54 15.8086 1019.88 16.1719 1020.33 16.5117C1020.79 16.8398 1021.36 17.1504 1022.06 17.4434C1022.75 17.7363 1023.56 18.0176 1024.5 18.2871C1025.92 18.709 1027.15 19.1777 1028.21 19.6934C1029.26 20.1973 1030.14 20.7715 1030.85 21.416C1031.55 22.0605 1032.08 22.793 1032.43 23.6133C1032.78 24.4219 1032.95 25.3418 1032.95 26.373C1032.95 27.4512 1032.74 28.4238 1032.3 29.291C1031.87 30.1465 1031.25 30.8789 1030.44 31.4883C1029.64 32.0859 1028.68 32.5488 1027.56 32.877C1026.44 33.1934 1025.2 33.3516 1023.83 33.3516C1022.6 33.3516 1021.39 33.1875 1020.19 32.8594C1019.01 32.5312 1017.93 32.0332 1016.96 31.3652C1015.99 30.6855 1015.21 29.8418 1014.64 28.834C1014.06 27.8145 1013.78 26.625 1013.78 25.2656H1018.19C1018.19 26.0977 1018.33 26.8066 1018.61 27.3926C1018.9 27.9785 1019.31 28.459 1019.82 28.834C1020.34 29.1973 1020.94 29.4668 1021.62 29.6426C1022.31 29.8184 1023.05 29.9062 1023.83 29.9062C1024.86 29.9062 1025.72 29.7598 1026.42 29.4668C1027.12 29.1738 1027.65 28.7637 1028 28.2363C1028.35 27.709 1028.52 27.0996 1028.52 26.4082ZM1040.97 13.9805V33H1036.72V13.9805H1040.97ZM1036.43 8.98828C1036.43 8.34375 1036.65 7.81055 1037.07 7.38867C1037.5 6.95508 1038.1 6.73828 1038.86 6.73828C1039.61 6.73828 1040.2 6.95508 1040.64 7.38867C1041.07 7.81055 1041.29 8.34375 1041.29 8.98828C1041.29 9.62109 1041.07 10.1484 1040.64 10.5703C1040.2 10.9922 1039.61 11.2031 1038.86 11.2031C1038.1 11.2031 1037.5 10.9922 1037.07 10.5703C1036.65 10.1484 1036.43 9.62109 1036.43 8.98828ZM1054.33 13.9805V17.0742H1043.61V13.9805H1054.33ZM1046.7 9.32227H1050.94V27.7441C1050.94 28.3301 1051.02 28.7812 1051.18 29.0977C1051.36 29.4023 1051.6 29.6074 1051.9 29.7129C1052.21 29.8184 1052.57 29.8711 1052.98 29.8711C1053.27 29.8711 1053.55 29.8535 1053.82 29.8184C1054.09 29.7832 1054.31 29.748 1054.47 29.7129L1054.49 32.9473C1054.14 33.0527 1053.73 33.1465 1053.26 33.2285C1052.8 33.3105 1052.27 33.3516 1051.68 33.3516C1050.7 33.3516 1049.84 33.1816 1049.09 32.8418C1048.34 32.4902 1047.76 31.9219 1047.33 31.1367C1046.91 30.3516 1046.7 29.3086 1046.7 28.0078V9.32227Z" fill="#124362"/>
</svg>
