<svg width="1064" height="2103" viewBox="0 0 1064 2103" fill="none" xmlns="http://www.w3.org/2000/svg">
<path d="M685.185 0.5H0V1988.68C0 2028.59 20.923 2065.58 55.1285 2086.13C81.5676 2102.03 113.329 2106.49 143.125 2098.51L280.459 2061.72C301.741 2056.02 324.183 2056.28 345.324 2062.49L463.046 2097.06C493.442 2105.99 526.134 2102.54 553.992 2087.45L667.042 2026.25C675.319 2021.76 684.094 2018.27 693.186 2015.84L930.027 1952.53C991.882 1936 1029.86 1873.81 1016.33 1811.23L1008.78 1776.34C1004.34 1755.81 1005.37 1734.47 1011.76 1714.45L1057.85 1570.19C1070.93 1529.25 1061.12 1484.44 1032.12 1452.71L978.215 1393.72C945.915 1358.38 937.713 1307.22 957.347 1263.56L1041.14 1077.2C1063.46 1027.56 1049.58 969.118 1007.32 934.819L992.386 922.697C952.17 890.054 937.438 835.291 955.847 786.876L976.059 733.72C991.995 691.811 983.238 644.515 953.355 611.089L845.982 490.99C817.244 458.847 807.96 413.757 821.662 372.876L868.668 232.623C882.726 190.679 872.567 144.403 842.233 112.204L772.53 38.2147C749.855 14.1455 718.253 0.5 685.185 0.5Z" fill="#59A9E4"/>
</svg>
