<svg width="1065" height="2151" viewBox="0 0 1065 2151" fill="none" xmlns="http://www.w3.org/2000/svg">
<path d="M684.36 0H0V2036.87C0 2076.5 20.5623 2113.29 54.3156 2134.05C81.2256 2150.6 113.795 2155.26 144.264 2146.9L279.748 2109.76C301.477 2103.8 324.443 2104.08 346.02 2110.56L462.049 2145.44C493.029 2154.75 526.457 2151.16 554.752 2135.48L666.899 2073.34C675.27 2068.7 684.165 2065.08 693.395 2062.55L931.364 1997.45C992.648 1980.68 1030.24 1919.05 1017.1 1856.89L1008.48 1816.08C1004.23 1795.97 1005.22 1775.12 1011.34 1755.5L1058.73 1603.71C1071.3 1563.42 1061.79 1519.49 1033.68 1488.02L976.395 1423.86C945.088 1388.81 937.131 1338.7 956.036 1295.67L1042.63 1098.57C1064.16 1049.55 1050.62 992.205 1009.44 957.996L990.433 942.204C951.236 909.641 936.879 855.874 954.626 808.106L977.126 747.547C992.454 706.291 983.967 659.954 955.013 626.808L844.413 500.199C816.566 468.321 807.573 424.132 820.746 383.907L869.607 234.702C883.126 193.417 873.277 148.05 843.856 116.087L772.65 38.7301C749.928 14.0453 717.91 0 684.36 0Z" fill="#59A9E4"/>
</svg>
