<svg width="1920" height="315" viewBox="0 0 1920 315" fill="none" xmlns="http://www.w3.org/2000/svg">
<path d="M1904.43 327.656L-12 335L-12 199.393C-12 181.682 -8.07974 164.191 -0.520505 148.174L0.478274 146.058C26.7406 90.414 90.8347 63.6499 148.869 84.0937L314.854 142.565C353.714 156.254 396.881 149.05 429.189 123.483L484.044 80.0748C517.006 53.991 561.213 47.0555 600.58 61.7921L696.238 97.6017C725.684 108.625 758.281 107.651 787.016 94.8884L983.09 7.80672C1025.33 -10.9537 1074.81 7.62547 1094.27 49.5514C1114.81 93.8187 1168.42 111.605 1211.35 88.3951L1321.87 28.6403C1357.98 9.11615 1401.56 9.40619 1437.41 29.4091L1512.3 71.1966C1536.46 84.6765 1564.53 89.3956 1591.77 84.5551L1861.91 36.5466C1909.19 28.1455 1956.92 48.7314 1983.25 88.8788L2029.34 159.151C2053.08 195.335 2051.27 242.588 2024.83 276.848C2011.85 293.665 1993.93 305.988 1973.58 312.081L1938.39 322.615C1927.37 325.914 1915.94 327.612 1904.43 327.656Z" fill="#59A9E4"/>
</svg>
