<svg version="1.2" xmlns="http://www.w3.org/2000/svg" viewBox="0 0 1140 40" width="1140" height="40">
	<title>Years-svg</title>
	<style>
		.s0 { fill: #ffffff } 
		.s1 { fill: #124362 } 
	</style>
	<path id="Layer" fill-rule="evenodd" class="s0" d="m85.1 28.3v3.7h-17.3v-3.1l8.3-9q1.3-1.5 2-2.6 0.8-1.1 1.1-1.9 0.3-0.9 0.3-1.8 0-1.1-0.4-2-0.4-0.9-1.2-1.4-0.8-0.5-2-0.5-1.2 0-2.2 0.6-0.9 0.6-1.3 1.6-0.5 1.1-0.5 2.4h-4.6q0-2.3 1-4.1 1.1-1.9 3-3 2-1.2 4.7-1.2 2.6 0 4.5 0.9 1.8 0.9 2.7 2.5 1 1.6 1 3.8 0 1.2-0.4 2.4-0.4 1.2-1.2 2.4-0.7 1.2-1.7 2.3-1 1.2-2.2 2.5l-5 5.5zm20.2-11.3v4.3q0 3-0.6 5.1-0.6 2-1.7 3.4-1.2 1.3-2.7 1.9-1.6 0.7-3.5 0.7-1.5 0-2.9-0.4-1.3-0.4-2.3-1.3-1.1-0.8-1.8-2.1-0.8-1.3-1.2-3.1-0.4-1.8-0.4-4.2v-4.3q0-2.9 0.6-5 0.7-2.1 1.8-3.4 1.1-1.3 2.7-1.9 1.5-0.6 3.5-0.6 1.5 0 2.8 0.3 1.3 0.4 2.4 1.3 1 0.8 1.8 2.1 0.7 1.2 1.1 3.1 0.4 1.8 0.4 4.1zm-4.7 4.9v-5.5q0-1.5-0.1-2.6-0.2-1.1-0.5-1.9-0.3-0.8-0.8-1.2-0.5-0.5-1.1-0.8-0.6-0.2-1.3-0.2-1 0-1.7 0.4-0.7 0.3-1.2 1.1-0.5 0.8-0.7 2.1-0.3 1.2-0.3 3.1v5.5q0 1.5 0.2 2.6 0.1 1.1 0.5 1.9 0.3 0.8 0.7 1.3 0.5 0.5 1.1 0.8 0.7 0.2 1.4 0.2 0.9 0 1.6-0.4 0.7-0.3 1.2-1.1 0.5-0.8 0.8-2.1 0.2-1.3 0.2-3.2zm12.7-15.5l5.2 9.1 5.1-9.1h5.6l-7.6 12.7 7.7 12.9h-5.6l-5.2-9.3-5.3 9.3h-5.6l7.8-12.9-7.6-12.7zm22.8 0l5.1 9.1 5.1-9.1h5.6l-7.6 12.7 7.8 12.9h-5.6l-5.3-9.3-5.2 9.3h-5.7l7.8-12.9-7.6-12.7z"/>
	<path id="Layer" fill-rule="evenodd" class="s0" d="m395.1 28.3v3.7h-17.3v-3.1l8.3-9q1.3-1.5 2-2.6 0.8-1.1 1.1-1.9 0.3-0.9 0.3-1.8 0-1.1-0.4-2-0.4-0.9-1.2-1.4-0.8-0.5-2-0.5-1.2 0-2.2 0.6-0.9 0.6-1.3 1.6-0.5 1.1-0.5 2.4h-4.6q0-2.3 1-4.1 1.1-1.9 3-3 2-1.2 4.7-1.2 2.6 0 4.5 0.9 1.8 0.9 2.7 2.5 1 1.6 1 3.8 0 1.2-0.4 2.4-0.4 1.2-1.2 2.4-0.7 1.2-1.7 2.3-1 1.2-2.2 2.5l-5 5.5zm20.2-11.3v4.3q0 3-0.6 5.1-0.6 2-1.7 3.4-1.2 1.3-2.7 1.9-1.6 0.7-3.5 0.7-1.5 0-2.9-0.4-1.3-0.4-2.3-1.3-1.1-0.8-1.8-2.1-0.8-1.3-1.2-3.1-0.4-1.8-0.4-4.2v-4.3q0-2.9 0.6-5 0.7-2.1 1.8-3.4 1.1-1.3 2.7-1.9 1.5-0.6 3.5-0.6 1.5 0 2.8 0.3 1.3 0.4 2.4 1.3 1 0.8 1.8 2.1 0.7 1.2 1.1 3.1 0.4 1.8 0.4 4.1zm-4.7 4.9v-5.5q0-1.5-0.1-2.6-0.2-1.1-0.5-1.9-0.3-0.8-0.8-1.2-0.5-0.5-1.1-0.8-0.6-0.2-1.3-0.2-1 0-1.7 0.4-0.7 0.3-1.2 1.1-0.5 0.8-0.7 2.1-0.3 1.2-0.3 3.1v5.5q0 1.5 0.2 2.6 0.1 1.1 0.5 1.9 0.3 0.8 0.7 1.3 0.5 0.5 1.1 0.8 0.7 0.2 1.4 0.2 0.9 0 1.6-0.4 0.7-0.3 1.2-1.1 0.5-0.8 0.8-2.1 0.2-1.3 0.2-3.2zm12.7-15.5l5.2 9.1 5.1-9.1h5.6l-7.6 12.7 7.7 12.9h-5.6l-5.2-9.3-5.3 9.3h-5.6l7.8-12.9-7.6-12.7zm22.8 0l5.1 9.1 5.1-9.1h5.6l-7.6 12.7 7.8 12.9h-5.6l-5.3-9.3-5.2 9.3h-5.7l7.8-12.9-7.6-12.7z"/>
	<path id="Layer" fill-rule="evenodd" class="s1" d="m695.1 28.3v3.7h-17.3v-3.1l8.3-9q1.3-1.5 2-2.6 0.8-1.1 1.1-1.9 0.3-0.9 0.3-1.8 0-1.1-0.4-2-0.4-0.9-1.2-1.4-0.8-0.5-2-0.5-1.2 0-2.2 0.6-0.9 0.6-1.3 1.6-0.5 1.1-0.5 2.4h-4.6q0-2.3 1-4.1 1.1-1.9 3-3 2-1.2 4.7-1.2 2.6 0 4.5 0.9 1.8 0.9 2.7 2.5 1 1.6 1 3.8 0 1.2-0.4 2.4-0.4 1.2-1.2 2.4-0.7 1.2-1.7 2.3-1 1.2-2.2 2.5l-5 5.5zm20.2-11.3v4.3q0 3-0.6 5.1-0.6 2-1.7 3.4-1.2 1.3-2.7 1.9-1.6 0.7-3.5 0.7-1.5 0-2.9-0.4-1.3-0.4-2.3-1.3-1.1-0.8-1.8-2.1-0.8-1.3-1.2-3.1-0.4-1.8-0.4-4.2v-4.3q0-2.9 0.6-5 0.7-2.1 1.8-3.4 1.1-1.3 2.7-1.9 1.5-0.6 3.5-0.6 1.5 0 2.8 0.3 1.3 0.4 2.4 1.3 1 0.8 1.8 2.1 0.7 1.2 1.1 3.1 0.4 1.8 0.4 4.1zm-4.7 4.9v-5.5q0-1.5-0.1-2.6-0.2-1.1-0.5-1.9-0.3-0.8-0.8-1.2-0.5-0.5-1.1-0.8-0.6-0.2-1.3-0.2-1 0-1.7 0.4-0.7 0.3-1.2 1.1-0.5 0.8-0.7 2.1-0.3 1.2-0.3 3.1v5.5q0 1.5 0.2 2.6 0.1 1.1 0.5 1.9 0.3 0.8 0.7 1.3 0.5 0.5 1.1 0.8 0.7 0.2 1.4 0.2 0.9 0 1.6-0.4 0.7-0.3 1.2-1.1 0.5-0.8 0.8-2.1 0.2-1.3 0.2-3.2zm12.8-15.5l5.1 9.1 5.1-9.1h5.6l-7.6 12.7 7.7 12.9h-5.6l-5.2-9.3-5.3 9.3h-5.6l7.8-12.9-7.6-12.7zm22.8 0l5.1 9.1 5.1-9.1h5.6l-7.6 12.7 7.8 12.9h-5.6l-5.3-9.3-5.2 9.3h-5.7l7.8-12.9-7.6-12.7z"/>
	<path id="Layer" fill-rule="evenodd" class="s1" d="m1006.1 28.3v3.7h-17.3v-3.1l8.3-9q1.3-1.5 2-2.6 0.8-1.1 1.1-1.9 0.3-0.9 0.3-1.8 0-1.1-0.4-2-0.4-0.9-1.2-1.4-0.8-0.5-2-0.5-1.2 0-2.2 0.6-0.9 0.6-1.3 1.6-0.5 1.1-0.5 2.4h-4.6q0-2.3 1-4.1 1.1-1.9 3-3 2-1.2 4.7-1.2 2.6 0 4.5 0.9 1.8 0.9 2.7 2.5 1 1.6 1 3.8 0 1.2-0.4 2.4-0.4 1.2-1.2 2.4-0.7 1.2-1.7 2.3-1 1.2-2.2 2.5l-5 5.5zm20.2-11.3v4.3q0 3-0.6 5.1-0.6 2-1.7 3.4-1.2 1.3-2.7 1.9-1.6 0.7-3.5 0.7-1.5 0-2.9-0.4-1.3-0.4-2.3-1.3-1.1-0.8-1.8-2.1-0.8-1.3-1.2-3.1-0.4-1.8-0.4-4.2v-4.3q0-2.9 0.6-5 0.7-2.1 1.8-3.4 1.1-1.3 2.7-1.9 1.5-0.6 3.5-0.6 1.5 0 2.8 0.3 1.3 0.4 2.4 1.3 1 0.8 1.8 2.1 0.7 1.2 1.1 3.1 0.4 1.8 0.4 4.1zm-4.7 4.9v-5.5q0-1.5-0.1-2.6-0.2-1.1-0.5-1.9-0.3-0.8-0.8-1.2-0.5-0.5-1.1-0.8-0.6-0.2-1.3-0.2-1 0-1.7 0.4-0.7 0.3-1.2 1.1-0.5 0.8-0.7 2.1-0.3 1.2-0.3 3.1v5.5q0 1.5 0.2 2.6 0.1 1.1 0.5 1.9 0.3 0.8 0.7 1.3 0.5 0.5 1.1 0.8 0.7 0.2 1.4 0.2 0.9 0 1.6-0.4 0.7-0.3 1.2-1.1 0.5-0.8 0.8-2.1 0.2-1.3 0.2-3.2zm12.7-15.5l5.2 9.1 5.1-9.1h5.5l-7.5 12.7 7.7 12.9h-5.6l-5.2-9.3-5.3 9.3h-5.6l7.8-12.9-7.6-12.7zm22.8 0l5.1 9.1 5.1-9.1h5.6l-7.6 12.7 7.8 12.9h-5.6l-5.3-9.3-5.2 9.3h-5.7l7.8-12.9-7.6-12.7z"/>
</svg>