<svg width="1041" height="40" viewBox="0 0 1041 40" fill="none" xmlns="http://www.w3.org/2000/svg">
<path d="M32.2949 28.3438V32H14.9629V28.8711L23.2773 19.8887C24.1445 18.9043 24.8301 18.0488 25.334 17.3223C25.8379 16.5957 26.1953 15.9395 26.4062 15.3535C26.6289 14.7559 26.7402 14.1875 26.7402 13.6484C26.7402 12.8633 26.5996 12.1777 26.3184 11.5918C26.0371 10.9941 25.627 10.5313 25.0879 10.2031C24.5605 9.875 23.9102 9.71094 23.1367 9.71094C22.2812 9.71094 21.5488 9.91016 20.9395 10.3086C20.3418 10.6953 19.8848 11.2344 19.5684 11.9258C19.2637 12.6172 19.1113 13.4082 19.1113 14.2988H14.4531C14.4531 12.7871 14.8047 11.4102 15.5078 10.168C16.2109 8.91406 17.2188 7.91211 18.5312 7.16211C19.8438 6.41211 21.4023 6.03711 23.207 6.03711C24.9648 6.03711 26.4531 6.33008 27.6719 6.91602C28.8906 7.49023 29.8164 8.31055 30.4492 9.37695C31.082 10.4434 31.3984 11.7148 31.3984 13.1914C31.3984 14.0117 31.2637 14.8203 30.9941 15.6172C30.7246 16.4141 30.3438 17.2051 29.8516 17.9902C29.3711 18.7637 28.7969 19.5488 28.1289 20.3457C27.4609 21.1426 26.7168 21.957 25.8965 22.7891L20.9043 28.3438H32.2949ZM52.4746 17.0059V21.3125C52.4746 23.2812 52.2754 24.9629 51.877 26.3574C51.4785 27.752 50.9043 28.8945 50.1543 29.7852C49.4043 30.6641 48.5078 31.3145 47.4648 31.7363C46.4219 32.1465 45.2617 32.3516 43.9844 32.3516C42.9648 32.3516 42.0156 32.2227 41.1367 31.9648C40.2578 31.6953 39.4668 31.2852 38.7637 30.7344C38.0723 30.1719 37.4746 29.457 36.9707 28.5898C36.4785 27.7227 36.0977 26.6855 35.8281 25.4785C35.5703 24.2715 35.4414 22.8828 35.4414 21.3125V17.0059C35.4414 15.0371 35.6406 13.3613 36.0391 11.9785C36.4492 10.5957 37.0293 9.46484 37.7793 8.58594C38.5293 7.70703 39.4258 7.06836 40.4688 6.66992C41.5117 6.25977 42.6719 6.05469 43.9492 6.05469C44.9805 6.05469 45.9297 6.18359 46.7969 6.44141C47.6758 6.69922 48.4609 7.10352 49.1523 7.6543C49.8555 8.19336 50.4531 8.89648 50.9453 9.76367C51.4375 10.6191 51.8125 11.6504 52.0703 12.8574C52.3398 14.0527 52.4746 15.4355 52.4746 17.0059ZM47.834 21.9453V16.3555C47.834 15.3711 47.7754 14.5156 47.6582 13.7891C47.5527 13.0508 47.3945 12.4238 47.1836 11.9082C46.9727 11.3926 46.709 10.9766 46.3926 10.6602C46.0762 10.332 45.7129 10.0918 45.3027 9.93945C44.8926 9.78711 44.4414 9.71094 43.9492 9.71094C43.3398 9.71094 42.7949 9.83398 42.3145 10.0801C41.834 10.3145 41.4297 10.6895 41.1016 11.2051C40.7734 11.7207 40.5215 12.4062 40.3457 13.2617C40.1816 14.1055 40.0996 15.1367 40.0996 16.3555V21.9453C40.0996 22.9297 40.1523 23.791 40.2578 24.5293C40.375 25.2676 40.5391 25.9004 40.75 26.4277C40.9727 26.9551 41.2363 27.3887 41.541 27.7285C41.8574 28.0566 42.2207 28.3027 42.6309 28.4668C43.041 28.6191 43.4922 28.6953 43.9844 28.6953C44.6055 28.6953 45.1504 28.5723 45.6191 28.3262C46.0996 28.0801 46.5039 27.6934 46.832 27.166C47.1602 26.627 47.4062 25.9297 47.5703 25.0742C47.7461 24.207 47.834 23.1641 47.834 21.9453ZM60.543 6.40625L65.6582 15.5293L70.791 6.40625H76.3457L68.752 19.0977L76.5391 32H70.9316L65.6582 22.7012L60.4023 32H54.7773L62.5645 19.0977L54.9707 6.40625H60.543ZM83.3594 6.40625L88.4746 15.5293L93.6074 6.40625H99.1621L91.5684 19.0977L99.3555 32H93.748L88.4746 22.7012L83.2188 32H77.5938L85.3809 19.0977L77.7871 6.40625H83.3594Z" fill="white"/>
<path d="M341.295 28.3438V32H323.963V28.8711L332.277 19.8887C333.145 18.9043 333.83 18.0488 334.334 17.3223C334.838 16.5957 335.195 15.9395 335.406 15.3535C335.629 14.7559 335.74 14.1875 335.74 13.6484C335.74 12.8633 335.6 12.1777 335.318 11.5918C335.037 10.9941 334.627 10.5313 334.088 10.2031C333.561 9.875 332.91 9.71094 332.137 9.71094C331.281 9.71094 330.549 9.91016 329.939 10.3086C329.342 10.6953 328.885 11.2344 328.568 11.9258C328.264 12.6172 328.111 13.4082 328.111 14.2988H323.453C323.453 12.7871 323.805 11.4102 324.508 10.168C325.211 8.91406 326.219 7.91211 327.531 7.16211C328.844 6.41211 330.402 6.03711 332.207 6.03711C333.965 6.03711 335.453 6.33008 336.672 6.91602C337.891 7.49023 338.816 8.31055 339.449 9.37695C340.082 10.4434 340.398 11.7148 340.398 13.1914C340.398 14.0117 340.264 14.8203 339.994 15.6172C339.725 16.4141 339.344 17.2051 338.852 17.9902C338.371 18.7637 337.797 19.5488 337.129 20.3457C336.461 21.1426 335.717 21.957 334.896 22.7891L329.904 28.3438H341.295ZM361.475 17.0059V21.3125C361.475 23.2812 361.275 24.9629 360.877 26.3574C360.479 27.752 359.904 28.8945 359.154 29.7852C358.404 30.6641 357.508 31.3145 356.465 31.7363C355.422 32.1465 354.262 32.3516 352.984 32.3516C351.965 32.3516 351.016 32.2227 350.137 31.9648C349.258 31.6953 348.467 31.2852 347.764 30.7344C347.072 30.1719 346.475 29.457 345.971 28.5898C345.479 27.7227 345.098 26.6855 344.828 25.4785C344.57 24.2715 344.441 22.8828 344.441 21.3125V17.0059C344.441 15.0371 344.641 13.3613 345.039 11.9785C345.449 10.5957 346.029 9.46484 346.779 8.58594C347.529 7.70703 348.426 7.06836 349.469 6.66992C350.512 6.25977 351.672 6.05469 352.949 6.05469C353.98 6.05469 354.93 6.18359 355.797 6.44141C356.676 6.69922 357.461 7.10352 358.152 7.6543C358.855 8.19336 359.453 8.89648 359.945 9.76367C360.438 10.6191 360.812 11.6504 361.07 12.8574C361.34 14.0527 361.475 15.4355 361.475 17.0059ZM356.834 21.9453V16.3555C356.834 15.3711 356.775 14.5156 356.658 13.7891C356.553 13.0508 356.395 12.4238 356.184 11.9082C355.973 11.3926 355.709 10.9766 355.393 10.6602C355.076 10.332 354.713 10.0918 354.303 9.93945C353.893 9.78711 353.441 9.71094 352.949 9.71094C352.34 9.71094 351.795 9.83398 351.314 10.0801C350.834 10.3145 350.43 10.6895 350.102 11.2051C349.773 11.7207 349.521 12.4062 349.346 13.2617C349.182 14.1055 349.1 15.1367 349.1 16.3555V21.9453C349.1 22.9297 349.152 23.791 349.258 24.5293C349.375 25.2676 349.539 25.9004 349.75 26.4277C349.973 26.9551 350.236 27.3887 350.541 27.7285C350.857 28.0566 351.221 28.3027 351.631 28.4668C352.041 28.6191 352.492 28.6953 352.984 28.6953C353.605 28.6953 354.15 28.5723 354.619 28.3262C355.1 28.0801 355.504 27.6934 355.832 27.166C356.16 26.627 356.406 25.9297 356.57 25.0742C356.746 24.207 356.834 23.1641 356.834 21.9453ZM369.543 6.40625L374.658 15.5293L379.791 6.40625H385.346L377.752 19.0977L385.539 32H379.932L374.658 22.7012L369.402 32H363.777L371.564 19.0977L363.971 6.40625H369.543ZM392.359 6.40625L397.475 15.5293L402.607 6.40625H408.162L400.568 19.0977L408.355 32H402.748L397.475 22.7012L392.219 32H386.594L394.381 19.0977L386.787 6.40625H392.359Z" fill="white"/>
<path d="M649.295 28.3438V32H631.963V28.8711L640.277 19.8887C641.145 18.9043 641.83 18.0488 642.334 17.3223C642.838 16.5957 643.195 15.9395 643.406 15.3535C643.629 14.7559 643.74 14.1875 643.74 13.6484C643.74 12.8633 643.6 12.1777 643.318 11.5918C643.037 10.9941 642.627 10.5313 642.088 10.2031C641.561 9.875 640.91 9.71094 640.137 9.71094C639.281 9.71094 638.549 9.91016 637.939 10.3086C637.342 10.6953 636.885 11.2344 636.568 11.9258C636.264 12.6172 636.111 13.4082 636.111 14.2988H631.453C631.453 12.7871 631.805 11.4102 632.508 10.168C633.211 8.91406 634.219 7.91211 635.531 7.16211C636.844 6.41211 638.402 6.03711 640.207 6.03711C641.965 6.03711 643.453 6.33008 644.672 6.91602C645.891 7.49023 646.816 8.31055 647.449 9.37695C648.082 10.4434 648.398 11.7148 648.398 13.1914C648.398 14.0117 648.264 14.8203 647.994 15.6172C647.725 16.4141 647.344 17.2051 646.852 17.9902C646.371 18.7637 645.797 19.5488 645.129 20.3457C644.461 21.1426 643.717 21.957 642.896 22.7891L637.904 28.3438H649.295ZM669.475 17.0059V21.3125C669.475 23.2812 669.275 24.9629 668.877 26.3574C668.479 27.752 667.904 28.8945 667.154 29.7852C666.404 30.6641 665.508 31.3145 664.465 31.7363C663.422 32.1465 662.262 32.3516 660.984 32.3516C659.965 32.3516 659.016 32.2227 658.137 31.9648C657.258 31.6953 656.467 31.2852 655.764 30.7344C655.072 30.1719 654.475 29.457 653.971 28.5898C653.479 27.7227 653.098 26.6855 652.828 25.4785C652.57 24.2715 652.441 22.8828 652.441 21.3125V17.0059C652.441 15.0371 652.641 13.3613 653.039 11.9785C653.449 10.5957 654.029 9.46484 654.779 8.58594C655.529 7.70703 656.426 7.06836 657.469 6.66992C658.512 6.25977 659.672 6.05469 660.949 6.05469C661.98 6.05469 662.93 6.18359 663.797 6.44141C664.676 6.69922 665.461 7.10352 666.152 7.6543C666.855 8.19336 667.453 8.89648 667.945 9.76367C668.438 10.6191 668.812 11.6504 669.07 12.8574C669.34 14.0527 669.475 15.4355 669.475 17.0059ZM664.834 21.9453V16.3555C664.834 15.3711 664.775 14.5156 664.658 13.7891C664.553 13.0508 664.395 12.4238 664.184 11.9082C663.973 11.3926 663.709 10.9766 663.393 10.6602C663.076 10.332 662.713 10.0918 662.303 9.93945C661.893 9.78711 661.441 9.71094 660.949 9.71094C660.34 9.71094 659.795 9.83398 659.314 10.0801C658.834 10.3145 658.43 10.6895 658.102 11.2051C657.773 11.7207 657.521 12.4062 657.346 13.2617C657.182 14.1055 657.1 15.1367 657.1 16.3555V21.9453C657.1 22.9297 657.152 23.791 657.258 24.5293C657.375 25.2676 657.539 25.9004 657.75 26.4277C657.973 26.9551 658.236 27.3887 658.541 27.7285C658.857 28.0566 659.221 28.3027 659.631 28.4668C660.041 28.6191 660.492 28.6953 660.984 28.6953C661.605 28.6953 662.15 28.5723 662.619 28.3262C663.1 28.0801 663.504 27.6934 663.832 27.166C664.16 26.627 664.406 25.9297 664.57 25.0742C664.746 24.207 664.834 23.1641 664.834 21.9453ZM677.543 6.40625L682.658 15.5293L687.791 6.40625H693.346L685.752 19.0977L693.539 32H687.932L682.658 22.7012L677.402 32H671.777L679.564 19.0977L671.971 6.40625H677.543ZM700.359 6.40625L705.475 15.5293L710.607 6.40625H716.162L708.568 19.0977L716.355 32H710.748L705.475 22.7012L700.219 32H694.594L702.381 19.0977L694.787 6.40625H700.359Z" fill="#124362"/>
<path d="M960.295 28.3438V32H942.963V28.8711L951.277 19.8887C952.145 18.9043 952.83 18.0488 953.334 17.3223C953.838 16.5957 954.195 15.9395 954.406 15.3535C954.629 14.7559 954.74 14.1875 954.74 13.6484C954.74 12.8633 954.6 12.1777 954.318 11.5918C954.037 10.9941 953.627 10.5313 953.088 10.2031C952.561 9.875 951.91 9.71094 951.137 9.71094C950.281 9.71094 949.549 9.91016 948.939 10.3086C948.342 10.6953 947.885 11.2344 947.568 11.9258C947.264 12.6172 947.111 13.4082 947.111 14.2988H942.453C942.453 12.7871 942.805 11.4102 943.508 10.168C944.211 8.91406 945.219 7.91211 946.531 7.16211C947.844 6.41211 949.402 6.03711 951.207 6.03711C952.965 6.03711 954.453 6.33008 955.672 6.91602C956.891 7.49023 957.816 8.31055 958.449 9.37695C959.082 10.4434 959.398 11.7148 959.398 13.1914C959.398 14.0117 959.264 14.8203 958.994 15.6172C958.725 16.4141 958.344 17.2051 957.852 17.9902C957.371 18.7637 956.797 19.5488 956.129 20.3457C955.461 21.1426 954.717 21.957 953.896 22.7891L948.904 28.3438H960.295ZM980.475 17.0059V21.3125C980.475 23.2812 980.275 24.9629 979.877 26.3574C979.479 27.752 978.904 28.8945 978.154 29.7852C977.404 30.6641 976.508 31.3145 975.465 31.7363C974.422 32.1465 973.262 32.3516 971.984 32.3516C970.965 32.3516 970.016 32.2227 969.137 31.9648C968.258 31.6953 967.467 31.2852 966.764 30.7344C966.072 30.1719 965.475 29.457 964.971 28.5898C964.479 27.7227 964.098 26.6855 963.828 25.4785C963.57 24.2715 963.441 22.8828 963.441 21.3125V17.0059C963.441 15.0371 963.641 13.3613 964.039 11.9785C964.449 10.5957 965.029 9.46484 965.779 8.58594C966.529 7.70703 967.426 7.06836 968.469 6.66992C969.512 6.25977 970.672 6.05469 971.949 6.05469C972.98 6.05469 973.93 6.18359 974.797 6.44141C975.676 6.69922 976.461 7.10352 977.152 7.6543C977.855 8.19336 978.453 8.89648 978.945 9.76367C979.438 10.6191 979.812 11.6504 980.07 12.8574C980.34 14.0527 980.475 15.4355 980.475 17.0059ZM975.834 21.9453V16.3555C975.834 15.3711 975.775 14.5156 975.658 13.7891C975.553 13.0508 975.395 12.4238 975.184 11.9082C974.973 11.3926 974.709 10.9766 974.393 10.6602C974.076 10.332 973.713 10.0918 973.303 9.93945C972.893 9.78711 972.441 9.71094 971.949 9.71094C971.34 9.71094 970.795 9.83398 970.314 10.0801C969.834 10.3145 969.43 10.6895 969.102 11.2051C968.773 11.7207 968.521 12.4062 968.346 13.2617C968.182 14.1055 968.1 15.1367 968.1 16.3555V21.9453C968.1 22.9297 968.152 23.791 968.258 24.5293C968.375 25.2676 968.539 25.9004 968.75 26.4277C968.973 26.9551 969.236 27.3887 969.541 27.7285C969.857 28.0566 970.221 28.3027 970.631 28.4668C971.041 28.6191 971.492 28.6953 971.984 28.6953C972.605 28.6953 973.15 28.5723 973.619 28.3262C974.1 28.0801 974.504 27.6934 974.832 27.166C975.16 26.627 975.406 25.9297 975.57 25.0742C975.746 24.207 975.834 23.1641 975.834 21.9453ZM988.543 6.40625L993.658 15.5293L998.791 6.40625H1004.35L996.752 19.0977L1004.54 32H998.932L993.658 22.7012L988.402 32H982.777L990.564 19.0977L982.971 6.40625H988.543ZM1011.36 6.40625L1016.47 15.5293L1021.61 6.40625H1027.16L1019.57 19.0977L1027.36 32H1021.75L1016.47 22.7012L1011.22 32H1005.59L1013.38 19.0977L1005.79 6.40625H1011.36Z" fill="#124362"/>
</svg>
