<svg width="948" height="40" viewBox="0 0 948 40" fill="none" xmlns="http://www.w3.org/2000/svg">
<path d="M38.0926 28.3438V32H20.7606V28.8711L29.075 19.8887C29.9422 18.9043 30.6278 18.0488 31.1317 17.3223C31.6356 16.5957 31.993 15.9395 32.2039 15.3535C32.4266 14.7559 32.5379 14.1875 32.5379 13.6484C32.5379 12.8633 32.3973 12.1777 32.116 11.5918C31.8348 10.9941 31.4246 10.5313 30.8856 10.2031C30.3582 9.875 29.7078 9.71094 28.9344 9.71094C28.0789 9.71094 27.3465 9.91016 26.7371 10.3086C26.1395 10.6953 25.6824 11.2344 25.366 11.9258C25.0613 12.6172 24.909 13.4082 24.909 14.2988H20.2508C20.2508 12.7871 20.6024 11.4102 21.3055 10.168C22.0086 8.91406 23.0164 7.91211 24.3289 7.16211C25.6414 6.41211 27.2 6.03711 29.0047 6.03711C30.7625 6.03711 32.2508 6.33008 33.4696 6.91602C34.6883 7.49023 35.6141 8.31055 36.2469 9.37695C36.8797 10.4434 37.1961 11.7148 37.1961 13.1914C37.1961 14.0117 37.0613 14.8203 36.7918 15.6172C36.5223 16.4141 36.1414 17.2051 35.6492 17.9902C35.1688 18.7637 34.5946 19.5488 33.9266 20.3457C33.2586 21.1426 32.5145 21.957 31.6942 22.7891L26.702 28.3438H38.0926ZM58.2723 17.0059V21.3125C58.2723 23.2812 58.0731 24.9629 57.6746 26.3574C57.2762 27.752 56.702 28.8945 55.952 29.7852C55.202 30.6641 54.3055 31.3145 53.2625 31.7363C52.2196 32.1465 51.0594 32.3516 49.7821 32.3516C48.7625 32.3516 47.8133 32.2227 46.9344 31.9648C46.0555 31.6953 45.2645 31.2852 44.5613 30.7344C43.8699 30.1719 43.2723 29.457 42.7684 28.5898C42.2762 27.7227 41.8953 26.6855 41.6258 25.4785C41.368 24.2715 41.2391 22.8828 41.2391 21.3125V17.0059C41.2391 15.0371 41.4383 13.3613 41.8367 11.9785C42.2469 10.5957 42.827 9.46484 43.577 8.58594C44.327 7.70703 45.2235 7.06836 46.2664 6.66992C47.3094 6.25977 48.4696 6.05469 49.7469 6.05469C50.7781 6.05469 51.7274 6.18359 52.5946 6.44141C53.4735 6.69922 54.2586 7.10352 54.95 7.6543C55.6531 8.19336 56.2508 8.89648 56.743 9.76367C57.2352 10.6191 57.6102 11.6504 57.868 12.8574C58.1375 14.0527 58.2723 15.4355 58.2723 17.0059ZM53.6317 21.9453V16.3555C53.6317 15.3711 53.5731 14.5156 53.4559 13.7891C53.3504 13.0508 53.1922 12.4238 52.9813 11.9082C52.7703 11.3926 52.5067 10.9766 52.1903 10.6602C51.8738 10.332 51.5106 10.0918 51.1004 9.93945C50.6903 9.78711 50.2391 9.71094 49.7469 9.71094C49.1375 9.71094 48.5926 9.83398 48.1121 10.0801C47.6317 10.3145 47.2274 10.6895 46.8992 11.2051C46.5711 11.7207 46.3192 12.4062 46.1434 13.2617C45.9793 14.1055 45.8973 15.1367 45.8973 16.3555V21.9453C45.8973 22.9297 45.95 23.791 46.0555 24.5293C46.1727 25.2676 46.3367 25.9004 46.5477 26.4277C46.7703 26.9551 47.034 27.3887 47.3387 27.7285C47.6551 28.0566 48.0184 28.3027 48.4285 28.4668C48.8387 28.6191 49.2899 28.6953 49.7821 28.6953C50.4031 28.6953 50.9481 28.5723 51.4168 28.3262C51.8973 28.0801 52.3016 27.6934 52.6297 27.166C52.9578 26.627 53.2039 25.9297 53.368 25.0742C53.5438 24.207 53.6317 23.1641 53.6317 21.9453ZM66.3406 6.40625L71.4559 15.5293L76.5887 6.40625H82.1434L74.5496 19.0977L82.3367 32H76.7293L71.4559 22.7012L66.2 32H60.575L68.3621 19.0977L60.7684 6.40625H66.3406ZM89.1571 6.40625L94.2723 15.5293L99.4051 6.40625H104.96L97.366 19.0977L105.153 32H99.5457L94.2723 22.7012L89.0164 32H83.3914L91.1785 19.0977L83.5848 6.40625H89.1571Z" fill="#124362"/>
<path d="M314.093 28.3438V32H296.761V28.8711L305.075 19.8887C305.942 18.9043 306.628 18.0488 307.132 17.3223C307.636 16.5957 307.993 15.9395 308.204 15.3535C308.427 14.7559 308.538 14.1875 308.538 13.6484C308.538 12.8633 308.397 12.1777 308.116 11.5918C307.835 10.9941 307.425 10.5313 306.886 10.2031C306.358 9.875 305.708 9.71094 304.934 9.71094C304.079 9.71094 303.347 9.91016 302.737 10.3086C302.139 10.6953 301.682 11.2344 301.366 11.9258C301.061 12.6172 300.909 13.4082 300.909 14.2988H296.251C296.251 12.7871 296.602 11.4102 297.305 10.168C298.009 8.91406 299.016 7.91211 300.329 7.16211C301.641 6.41211 303.2 6.03711 305.005 6.03711C306.763 6.03711 308.251 6.33008 309.47 6.91602C310.688 7.49023 311.614 8.31055 312.247 9.37695C312.88 10.4434 313.196 11.7148 313.196 13.1914C313.196 14.0117 313.061 14.8203 312.792 15.6172C312.522 16.4141 312.141 17.2051 311.649 17.9902C311.169 18.7637 310.595 19.5488 309.927 20.3457C309.259 21.1426 308.514 21.957 307.694 22.7891L302.702 28.3438H314.093ZM334.272 17.0059V21.3125C334.272 23.2812 334.073 24.9629 333.675 26.3574C333.276 27.752 332.702 28.8945 331.952 29.7852C331.202 30.6641 330.305 31.3145 329.263 31.7363C328.22 32.1465 327.059 32.3516 325.782 32.3516C324.763 32.3516 323.813 32.2227 322.934 31.9648C322.055 31.6953 321.264 31.2852 320.561 30.7344C319.87 30.1719 319.272 29.457 318.768 28.5898C318.276 27.7227 317.895 26.6855 317.626 25.4785C317.368 24.2715 317.239 22.8828 317.239 21.3125V17.0059C317.239 15.0371 317.438 13.3613 317.837 11.9785C318.247 10.5957 318.827 9.46484 319.577 8.58594C320.327 7.70703 321.223 7.06836 322.266 6.66992C323.309 6.25977 324.47 6.05469 325.747 6.05469C326.778 6.05469 327.727 6.18359 328.595 6.44141C329.473 6.69922 330.259 7.10352 330.95 7.6543C331.653 8.19336 332.251 8.89648 332.743 9.76367C333.235 10.6191 333.61 11.6504 333.868 12.8574C334.138 14.0527 334.272 15.4355 334.272 17.0059ZM329.632 21.9453V16.3555C329.632 15.3711 329.573 14.5156 329.456 13.7891C329.35 13.0508 329.192 12.4238 328.981 11.9082C328.77 11.3926 328.507 10.9766 328.19 10.6602C327.874 10.332 327.511 10.0918 327.1 9.93945C326.69 9.78711 326.239 9.71094 325.747 9.71094C325.138 9.71094 324.593 9.83398 324.112 10.0801C323.632 10.3145 323.227 10.6895 322.899 11.2051C322.571 11.7207 322.319 12.4062 322.143 13.2617C321.979 14.1055 321.897 15.1367 321.897 16.3555V21.9453C321.897 22.9297 321.95 23.791 322.055 24.5293C322.173 25.2676 322.337 25.9004 322.548 26.4277C322.77 26.9551 323.034 27.3887 323.339 27.7285C323.655 28.0566 324.018 28.3027 324.429 28.4668C324.839 28.6191 325.29 28.6953 325.782 28.6953C326.403 28.6953 326.948 28.5723 327.417 28.3262C327.897 28.0801 328.302 27.6934 328.63 27.166C328.958 26.627 329.204 25.9297 329.368 25.0742C329.544 24.207 329.632 23.1641 329.632 21.9453ZM342.341 6.40625L347.456 15.5293L352.589 6.40625H358.143L350.55 19.0977L358.337 32H352.729L347.456 22.7012L342.2 32H336.575L344.362 19.0977L336.768 6.40625H342.341ZM365.157 6.40625L370.272 15.5293L375.405 6.40625H380.96L373.366 19.0977L381.153 32H375.546L370.272 22.7012L365.016 32H359.391L367.179 19.0977L359.585 6.40625H365.157Z" fill="#124362"/>
<path d="M583.093 28.3438V32H565.761V28.8711L574.075 19.8887C574.942 18.9043 575.628 18.0488 576.132 17.3223C576.636 16.5957 576.993 15.9395 577.204 15.3535C577.427 14.7559 577.538 14.1875 577.538 13.6484C577.538 12.8633 577.397 12.1777 577.116 11.5918C576.835 10.9941 576.425 10.5313 575.886 10.2031C575.358 9.875 574.708 9.71094 573.934 9.71094C573.079 9.71094 572.347 9.91016 571.737 10.3086C571.139 10.6953 570.682 11.2344 570.366 11.9258C570.061 12.6172 569.909 13.4082 569.909 14.2988H565.251C565.251 12.7871 565.602 11.4102 566.305 10.168C567.009 8.91406 568.016 7.91211 569.329 7.16211C570.641 6.41211 572.2 6.03711 574.005 6.03711C575.763 6.03711 577.251 6.33008 578.47 6.91602C579.688 7.49023 580.614 8.31055 581.247 9.37695C581.88 10.4434 582.196 11.7148 582.196 13.1914C582.196 14.0117 582.061 14.8203 581.792 15.6172C581.522 16.4141 581.141 17.2051 580.649 17.9902C580.169 18.7637 579.595 19.5488 578.927 20.3457C578.259 21.1426 577.514 21.957 576.694 22.7891L571.702 28.3438H583.093ZM603.272 17.0059V21.3125C603.272 23.2812 603.073 24.9629 602.675 26.3574C602.276 27.752 601.702 28.8945 600.952 29.7852C600.202 30.6641 599.305 31.3145 598.263 31.7363C597.22 32.1465 596.059 32.3516 594.782 32.3516C593.763 32.3516 592.813 32.2227 591.934 31.9648C591.055 31.6953 590.264 31.2852 589.561 30.7344C588.87 30.1719 588.272 29.457 587.768 28.5898C587.276 27.7227 586.895 26.6855 586.626 25.4785C586.368 24.2715 586.239 22.8828 586.239 21.3125V17.0059C586.239 15.0371 586.438 13.3613 586.837 11.9785C587.247 10.5957 587.827 9.46484 588.577 8.58594C589.327 7.70703 590.223 7.06836 591.266 6.66992C592.309 6.25977 593.47 6.05469 594.747 6.05469C595.778 6.05469 596.727 6.18359 597.595 6.44141C598.473 6.69922 599.259 7.10352 599.95 7.6543C600.653 8.19336 601.251 8.89648 601.743 9.76367C602.235 10.6191 602.61 11.6504 602.868 12.8574C603.138 14.0527 603.272 15.4355 603.272 17.0059ZM598.632 21.9453V16.3555C598.632 15.3711 598.573 14.5156 598.456 13.7891C598.35 13.0508 598.192 12.4238 597.981 11.9082C597.77 11.3926 597.507 10.9766 597.19 10.6602C596.874 10.332 596.511 10.0918 596.1 9.93945C595.69 9.78711 595.239 9.71094 594.747 9.71094C594.138 9.71094 593.593 9.83398 593.112 10.0801C592.632 10.3145 592.227 10.6895 591.899 11.2051C591.571 11.7207 591.319 12.4062 591.143 13.2617C590.979 14.1055 590.897 15.1367 590.897 16.3555V21.9453C590.897 22.9297 590.95 23.791 591.055 24.5293C591.173 25.2676 591.337 25.9004 591.548 26.4277C591.77 26.9551 592.034 27.3887 592.339 27.7285C592.655 28.0566 593.018 28.3027 593.429 28.4668C593.839 28.6191 594.29 28.6953 594.782 28.6953C595.403 28.6953 595.948 28.5723 596.417 28.3262C596.897 28.0801 597.302 27.6934 597.63 27.166C597.958 26.627 598.204 25.9297 598.368 25.0742C598.544 24.207 598.632 23.1641 598.632 21.9453ZM611.341 6.40625L616.456 15.5293L621.589 6.40625H627.143L619.55 19.0977L627.337 32H621.729L616.456 22.7012L611.2 32H605.575L613.362 19.0977L605.768 6.40625H611.341ZM634.157 6.40625L639.272 15.5293L644.405 6.40625H649.96L642.366 19.0977L650.153 32H644.546L639.272 22.7012L634.016 32H628.391L636.179 19.0977L628.585 6.40625H634.157Z" fill="#124362"/>
<path d="M861.093 28.3438V32H843.761V28.8711L852.075 19.8887C852.942 18.9043 853.628 18.0488 854.132 17.3223C854.636 16.5957 854.993 15.9395 855.204 15.3535C855.427 14.7559 855.538 14.1875 855.538 13.6484C855.538 12.8633 855.397 12.1777 855.116 11.5918C854.835 10.9941 854.425 10.5313 853.886 10.2031C853.358 9.875 852.708 9.71094 851.934 9.71094C851.079 9.71094 850.347 9.91016 849.737 10.3086C849.139 10.6953 848.682 11.2344 848.366 11.9258C848.061 12.6172 847.909 13.4082 847.909 14.2988H843.251C843.251 12.7871 843.602 11.4102 844.305 10.168C845.009 8.91406 846.016 7.91211 847.329 7.16211C848.641 6.41211 850.2 6.03711 852.005 6.03711C853.763 6.03711 855.251 6.33008 856.47 6.91602C857.688 7.49023 858.614 8.31055 859.247 9.37695C859.88 10.4434 860.196 11.7148 860.196 13.1914C860.196 14.0117 860.061 14.8203 859.792 15.6172C859.522 16.4141 859.141 17.2051 858.649 17.9902C858.169 18.7637 857.595 19.5488 856.927 20.3457C856.259 21.1426 855.514 21.957 854.694 22.7891L849.702 28.3438H861.093ZM881.272 17.0059V21.3125C881.272 23.2812 881.073 24.9629 880.675 26.3574C880.276 27.752 879.702 28.8945 878.952 29.7852C878.202 30.6641 877.305 31.3145 876.263 31.7363C875.22 32.1465 874.059 32.3516 872.782 32.3516C871.763 32.3516 870.813 32.2227 869.934 31.9648C869.055 31.6953 868.264 31.2852 867.561 30.7344C866.87 30.1719 866.272 29.457 865.768 28.5898C865.276 27.7227 864.895 26.6855 864.626 25.4785C864.368 24.2715 864.239 22.8828 864.239 21.3125V17.0059C864.239 15.0371 864.438 13.3613 864.837 11.9785C865.247 10.5957 865.827 9.46484 866.577 8.58594C867.327 7.70703 868.223 7.06836 869.266 6.66992C870.309 6.25977 871.47 6.05469 872.747 6.05469C873.778 6.05469 874.727 6.18359 875.595 6.44141C876.473 6.69922 877.259 7.10352 877.95 7.6543C878.653 8.19336 879.251 8.89648 879.743 9.76367C880.235 10.6191 880.61 11.6504 880.868 12.8574C881.138 14.0527 881.272 15.4355 881.272 17.0059ZM876.632 21.9453V16.3555C876.632 15.3711 876.573 14.5156 876.456 13.7891C876.35 13.0508 876.192 12.4238 875.981 11.9082C875.77 11.3926 875.507 10.9766 875.19 10.6602C874.874 10.332 874.511 10.0918 874.1 9.93945C873.69 9.78711 873.239 9.71094 872.747 9.71094C872.138 9.71094 871.593 9.83398 871.112 10.0801C870.632 10.3145 870.227 10.6895 869.899 11.2051C869.571 11.7207 869.319 12.4062 869.143 13.2617C868.979 14.1055 868.897 15.1367 868.897 16.3555V21.9453C868.897 22.9297 868.95 23.791 869.055 24.5293C869.173 25.2676 869.337 25.9004 869.548 26.4277C869.77 26.9551 870.034 27.3887 870.339 27.7285C870.655 28.0566 871.018 28.3027 871.429 28.4668C871.839 28.6191 872.29 28.6953 872.782 28.6953C873.403 28.6953 873.948 28.5723 874.417 28.3262C874.897 28.0801 875.302 27.6934 875.63 27.166C875.958 26.627 876.204 25.9297 876.368 25.0742C876.544 24.207 876.632 23.1641 876.632 21.9453ZM889.341 6.40625L894.456 15.5293L899.589 6.40625H905.143L897.55 19.0977L905.337 32H899.729L894.456 22.7012L889.2 32H883.575L891.362 19.0977L883.768 6.40625H889.341ZM912.157 6.40625L917.272 15.5293L922.405 6.40625H927.96L920.366 19.0977L928.153 32H922.546L917.272 22.7012L912.016 32H906.391L914.179 19.0977L906.585 6.40625H912.157Z" fill="#124362"/>
</svg>
