<svg width="37" height="40" viewBox="0 0 37 40" fill="none" xmlns="http://www.w3.org/2000/svg">
<path d="M4.40527 6.78809H2.08203V5.18213H4.40527C4.74805 5.18213 5.02311 5.125 5.23047 5.01074C5.44206 4.89648 5.59652 4.73991 5.69385 4.54102C5.79541 4.33789 5.84619 4.10938 5.84619 3.85547C5.84619 3.5931 5.79541 3.34977 5.69385 3.12549C5.59652 2.89697 5.44206 2.71289 5.23047 2.57324C5.02311 2.43359 4.74805 2.36377 4.40527 2.36377H2.83105V10H0.761719V0.757812H4.40527C5.1416 0.757812 5.77214 0.891113 6.29688 1.15771C6.82585 1.42432 7.22998 1.79036 7.50928 2.25586C7.79281 2.71712 7.93457 3.24609 7.93457 3.84277C7.93457 4.43945 7.79281 4.95785 7.50928 5.39795C7.22998 5.83805 6.82585 6.18083 6.29688 6.42627C5.77214 6.66748 5.1416 6.78809 4.40527 6.78809ZM9.19141 0.757812H12.7397C13.4465 0.757812 14.0579 0.863607 14.5742 1.0752C15.0947 1.28678 15.4946 1.59993 15.7739 2.01465C16.0532 2.42936 16.1929 2.94141 16.1929 3.55078C16.1929 4.05859 16.1104 4.49023 15.9453 4.8457C15.7803 5.20117 15.5475 5.49528 15.2471 5.72803C14.9508 5.96077 14.6038 6.14909 14.2061 6.29297L13.5332 6.66113H10.5117L10.499 5.05518H12.7461C13.055 5.05518 13.311 5.00016 13.5142 4.89014C13.7173 4.78011 13.8696 4.62565 13.9712 4.42676C14.077 4.22363 14.1299 3.98665 14.1299 3.71582C14.1299 3.43652 14.077 3.19531 13.9712 2.99219C13.8654 2.78906 13.7088 2.6346 13.5015 2.52881C13.2983 2.41878 13.0444 2.36377 12.7397 2.36377H11.2607V10H9.19141V0.757812ZM14.3076 10L12.2319 5.89307L14.4155 5.88672L16.5229 9.90479V10H14.3076ZM25.3018 5.17578V5.58838C25.3018 6.29085 25.2044 6.92139 25.0098 7.47998C24.8193 8.03857 24.5464 8.51465 24.1909 8.9082C23.8397 9.30176 23.4207 9.60433 22.9341 9.81592C22.4517 10.0233 21.9163 10.127 21.3281 10.127C20.7399 10.127 20.2025 10.0233 19.7158 9.81592C19.2292 9.60433 18.806 9.30176 18.4463 8.9082C18.0908 8.51465 17.8158 8.03857 17.6211 7.47998C17.4264 6.92139 17.3291 6.29085 17.3291 5.58838V5.17578C17.3291 4.47331 17.4264 3.84277 17.6211 3.28418C17.8158 2.72135 18.0887 2.24316 18.4399 1.84961C18.7954 1.45605 19.2165 1.1556 19.7031 0.948242C20.1898 0.736654 20.7272 0.630859 21.3154 0.630859C21.9036 0.630859 22.4411 0.736654 22.9277 0.948242C23.4144 1.1556 23.8333 1.45605 24.1846 1.84961C24.54 2.24316 24.8151 2.72135 25.0098 3.28418C25.2044 3.84277 25.3018 4.47331 25.3018 5.17578ZM23.2134 5.58838V5.16309C23.2134 4.69336 23.1711 4.27865 23.0864 3.91895C23.0018 3.55501 22.8791 3.25033 22.7183 3.00488C22.5575 2.75944 22.3586 2.57536 22.1216 2.45264C21.8846 2.32568 21.6159 2.26221 21.3154 2.26221C21.0023 2.26221 20.7293 2.32568 20.4966 2.45264C20.2638 2.57536 20.0671 2.75944 19.9062 3.00488C19.7497 3.25033 19.6291 3.55501 19.5444 3.91895C19.464 4.27865 19.4238 4.69336 19.4238 5.16309V5.58838C19.4238 6.05387 19.464 6.46859 19.5444 6.83252C19.6291 7.19222 19.7518 7.49691 19.9126 7.74658C20.0734 7.99626 20.2702 8.18457 20.5029 8.31152C20.7399 8.43848 21.015 8.50195 21.3281 8.50195C21.6286 8.50195 21.8952 8.43848 22.1279 8.31152C22.3649 8.18457 22.5638 7.99626 22.7246 7.74658C22.8854 7.49691 23.006 7.19222 23.0864 6.83252C23.1711 6.46859 23.2134 6.05387 23.2134 5.58838ZM8.20752 20.1187V23.8447C8.05518 24.0182 7.82243 24.2044 7.50928 24.4033C7.20036 24.6022 6.80469 24.7736 6.32227 24.9175C5.83984 25.0571 5.26432 25.127 4.5957 25.127C3.99056 25.127 3.44043 25.0296 2.94531 24.835C2.4502 24.6361 2.0249 24.3462 1.66943 23.9653C1.31396 23.5802 1.0389 23.1105 0.844238 22.5562C0.653809 22.0018 0.558594 21.367 0.558594 20.6519V20.106C0.558594 19.3908 0.653809 18.756 0.844238 18.2017C1.03467 17.6473 1.30339 17.1797 1.65039 16.7988C1.9974 16.4137 2.40999 16.1217 2.88818 15.9229C3.36637 15.724 3.89535 15.6245 4.4751 15.6245C5.30029 15.6245 5.97526 15.7578 6.5 16.0244C7.02474 16.2868 7.42253 16.6507 7.69336 17.1162C7.96842 17.5817 8.1377 18.117 8.20117 18.7222H6.20801C6.16569 18.4132 6.08105 18.1466 5.9541 17.9224C5.83138 17.6981 5.65576 17.5267 5.42725 17.4082C5.19873 17.2855 4.90251 17.2241 4.53857 17.2241C4.24658 17.2241 3.9821 17.2855 3.74512 17.4082C3.51237 17.5267 3.31559 17.7065 3.15479 17.9478C2.99398 18.189 2.87126 18.4894 2.78662 18.8491C2.70199 19.2046 2.65967 19.6193 2.65967 20.0933V20.6519C2.65967 21.1258 2.70199 21.5426 2.78662 21.9023C2.87549 22.262 3.00456 22.5625 3.17383 22.8037C3.3431 23.0407 3.5568 23.2205 3.81494 23.3433C4.07731 23.466 4.382 23.5273 4.729 23.5273C4.99984 23.5273 5.22835 23.5062 5.41455 23.4639C5.60075 23.4173 5.75309 23.3602 5.87158 23.2925C5.99007 23.2205 6.07894 23.1549 6.13818 23.0957V21.5596H4.49414V20.1187H8.20752ZM9.62305 15.7578H13.1714C13.8781 15.7578 14.4896 15.8636 15.0059 16.0752C15.5264 16.2868 15.9263 16.5999 16.2056 17.0146C16.4849 17.4294 16.6245 17.9414 16.6245 18.5508C16.6245 19.0586 16.542 19.4902 16.377 19.8457C16.2119 20.2012 15.9792 20.4953 15.6787 20.728C15.3825 20.9608 15.0355 21.1491 14.6377 21.293L13.9648 21.6611H10.9434L10.9307 20.0552H13.1777C13.4867 20.0552 13.7427 20.0002 13.9458 19.8901C14.1489 19.7801 14.3013 19.6257 14.4028 19.4268C14.5086 19.2236 14.5615 18.9867 14.5615 18.7158C14.5615 18.4365 14.5086 18.1953 14.4028 17.9922C14.297 17.7891 14.1405 17.6346 13.9331 17.5288C13.73 17.4188 13.4761 17.3638 13.1714 17.3638H11.6924V25H9.62305V15.7578ZM14.7393 25L12.6636 20.8931L14.8472 20.8867L16.9546 24.9048V25H14.7393ZM21.8677 17.5161L19.481 25H17.272L20.6934 15.7578H22.0898L21.8677 17.5161ZM23.8481 25L21.4551 17.5161L21.2075 15.7578H22.623L26.0571 25H23.8481ZM23.7466 21.5596V23.1592H18.9287V21.5596H23.7466ZM27.8154 15.7578H29.5293L31.751 22.3657L33.9663 15.7578H35.6802L32.4429 25H31.0527L27.8154 15.7578ZM26.8252 15.7578H28.5708L28.8945 22.6069V25H26.8252V15.7578ZM34.9248 15.7578H36.6768V25H34.6011V22.6069L34.9248 15.7578ZM1.75195 30.7578H3.46582L5.6875 37.3657L7.90283 30.7578H9.6167L6.37939 40H4.98926L1.75195 30.7578ZM0.761719 30.7578H2.50732L2.83105 37.6069V40H0.761719V30.7578ZM8.86133 30.7578H10.6133V40H8.5376V37.6069L8.86133 30.7578ZM18.4336 38.4004V40H13.5142V38.4004H18.4336ZM14.2188 30.7578V40H12.1494V30.7578H14.2188ZM17.7988 34.4775V36.0264H13.5142V34.4775H17.7988ZM18.4399 30.7578V32.3638H13.5142V30.7578H18.4399ZM19.4492 30.7578H22.9976C23.7043 30.7578 24.3158 30.8636 24.832 31.0752C25.3525 31.2868 25.7524 31.5999 26.0317 32.0146C26.311 32.4294 26.4507 32.9414 26.4507 33.5508C26.4507 34.0586 26.3682 34.4902 26.2031 34.8457C26.0381 35.2012 25.8053 35.4953 25.5049 35.728C25.2087 35.9608 24.8617 36.1491 24.4639 36.293L23.791 36.6611H20.7695L20.7568 35.0552H23.0039C23.3128 35.0552 23.5688 35.0002 23.772 34.8901C23.9751 34.7801 24.1274 34.6257 24.229 34.4268C24.3348 34.2236 24.3877 33.9867 24.3877 33.7158C24.3877 33.4365 24.3348 33.1953 24.229 32.9922C24.1232 32.7891 23.9666 32.6346 23.7593 32.5288C23.5562 32.4188 23.3022 32.3638 22.9976 32.3638H21.5186V40H19.4492V30.7578ZM24.5654 40L22.4897 35.8931L24.6733 35.8867L26.7808 39.9048V40H24.5654Z" fill="#1E1C1C"/>
<path d="M31.8525 38.7368L30.7036 37.6323L35.6484 32.5923L36.7974 33.6968L31.8525 38.7368ZM35.6484 38.7368L30.7036 33.6968L31.8525 32.5923L36.7974 37.6323L35.6484 38.7368Z" fill="#48C6EF"/>
</svg>
